<svg width="73" height="72" viewBox="0 0 73 72" fill="none" xmlns="http://www.w3.org/2000/svg">
<g id="change-of-student-status-information 1">
<path id="Vector" d="M56.3079 57.8075L16.281 57.9397C16.0899 57.9397 15.9413 57.7518 15.9413 57.5152L15.814 7.2799C15.814 7.04326 15.9626 6.85535 16.1536 6.85535L43.685 6.76488C43.7628 6.76488 51.7583 6.68832 51.822 6.75096L56.5344 12.4997C56.6193 12.5832 56.5485 18.9722 56.5485 19.1045L56.6476 57.3899C56.6476 57.6126 56.4919 57.8005 56.3079 57.8075Z" fill="#154B69"/>
<path id="Vector_2" d="M55.2466 13.2931L50.6899 13.3697L50.6262 8.20557L55.2466 13.2931Z" fill="#E1F5FE"/>
<path id="Vector_3" d="M22.6846 17.796H33.6731V31.2701H22.6846V17.796Z" fill="#154B69"/>
<path id="Vector_4" d="M25.6846 22.2084C25.6846 20.9627 26.7105 19.9535 27.9771 19.9535C29.2436 19.9535 30.2696 20.9627 30.2696 22.2084C30.2696 23.4542 29.2436 24.4634 27.9771 24.4634C26.7105 24.4634 25.6846 23.4542 25.6846 22.2084ZM32.1305 27.5813C32.1305 27.5813 31.0408 25.3264 28.1186 25.3264C25.1963 25.3264 24.1067 27.5813 24.1067 27.5813V28.7088H32.1305V27.5813Z" fill="white"/>
<path id="Vector_5" d="M49.7631 20.6495H36.2698V17.8517H49.7702L49.7631 20.6495ZM45.2913 23.1341H36.3406V25.9319H45.2983L45.2913 23.1341ZM45.2913 28.4653H36.2698V31.2631H45.2983L45.2913 28.4653ZM49.7418 34.381H22.6845V37.1788H49.7418V34.381ZM36.1778 40.1089H22.6492V42.9067H36.1778V40.1089Z" fill="white"/>
<path id="Vector_6" d="M38.3855 51.0356C38.3855 58.406 44.4493 64.3774 51.9424 64.3774C59.4356 64.3774 65.5065 58.413 65.5065 51.0426V51.0356C65.5065 43.6653 59.4426 37.6938 51.9495 37.6938C44.4564 37.6938 38.3855 43.6583 38.3855 51.0356C38.3855 51.0287 38.3855 51.0287 38.3855 51.0356Z" fill="#154B69"/>
<path id="Vector_7" d="M49.7772 57.383L46.6357 54.78L56.3505 43.4287L59.4921 46.0317L49.7772 57.383ZM45.7229 58.8515L48.9777 58.2251L45.7937 55.5874L45.7229 58.8515Z" fill="#DCEDC8"/>
</g>
</svg>
