<svg width="66" height="67" viewBox="0 0 66 67" fill="none" xmlns="http://www.w3.org/2000/svg">
<path id="Vector" d="M25.2518 11.3749C24.0457 11.6749 22.8396 12.275 21.6335 12.8751C12.588 17.0758 6.55769 26.3772 6.55769 36.2787C6.55769 38.379 6.8592 40.4793 7.16072 42.2796H8.36679C12.8895 42.2796 16.5078 45.8801 16.5078 50.3808C16.5078 52.1811 15.9047 53.9814 14.6987 55.4816C19.2214 59.6823 25.5533 62.3827 32.4882 62.3827C39.4231 62.3827 45.7549 59.6823 50.2777 55.4816C49.0716 53.9814 48.4686 52.4812 48.4686 50.3808C48.4686 45.8801 52.0868 42.2796 56.6095 42.2796H57.8156C58.4186 40.1793 58.4186 38.379 58.4186 36.2787C58.4186 24.5769 50.5792 14.6754 39.7246 11.3749C38.5185 14.3753 35.5033 16.1756 32.1866 16.1756C29.473 16.1756 26.4578 14.3753 25.2518 11.3749ZM24.9502 7.47429C25.2518 3.27365 28.5684 0.273193 32.7897 0.273193C37.0109 0.273193 40.3276 3.27365 40.6291 7.47429C53.2929 11.0748 62.9414 22.4766 62.9414 36.2787C62.9414 38.9791 62.6399 41.6795 62.0368 44.0799C63.846 45.5801 65.052 47.6804 65.052 50.3808C65.052 54.8815 61.4338 58.4821 56.9111 58.4821C55.705 58.4821 54.8004 58.182 53.8959 57.882C48.4686 63.2828 40.9306 66.5833 32.7897 66.5833C24.6487 66.5833 17.1108 63.2828 11.6835 57.882C10.7789 58.182 9.87438 58.4821 8.66831 58.4821C4.14555 58.4821 0.527344 54.8815 0.527344 50.3808C0.527344 47.9805 1.73341 45.5801 3.54252 44.0799C2.93948 41.6795 2.63796 38.9791 2.63796 36.2787C2.63796 24.5769 9.57286 14.0753 19.8244 9.27457C21.6335 8.37443 23.1411 7.77434 24.9502 7.47429Z" fill="#154B69"/>
</svg>
