<svg width="129" height="90" viewBox="0 0 129 90" fill="none" xmlns="http://www.w3.org/2000/svg">
<g id="lower dots ">
<g id="dots">
<circle id="Ellipse 13" cx="99.6545" cy="35.1446" r="4.5" transform="rotate(47.181 99.6545 35.1446)" fill="#275D8B"/>
<circle id="Ellipse 16" cx="88.7795" cy="23.4085" r="4.5" transform="rotate(47.181 88.7795 23.4085)" fill="#275D8B"/>
<circle id="Ellipse 14" cx="110.529" cy="46.8807" r="4.5" transform="rotate(47.181 110.529 46.8807)" fill="#275D8B"/>
<circle id="Ellipse 15" cx="121.404" cy="58.6168" r="4.5" transform="rotate(47.181 121.404 58.6168)" fill="#275D8B"/>
</g>
<g id="dots_2">
<circle id="Ellipse 13_2" cx="79.9311" cy="38.607" r="4.5" transform="rotate(47.181 79.9311 38.607)" fill="#275D8B"/>
<circle id="Ellipse 16_2" cx="69.0561" cy="26.8709" r="4.5" transform="rotate(47.181 69.0561 26.8709)" fill="#275D8B"/>
<circle id="Ellipse 14_2" cx="90.806" cy="50.3431" r="4.5" transform="rotate(47.181 90.806 50.3431)" fill="#275D8B"/>
<circle id="Ellipse 15_2" cx="101.681" cy="62.0791" r="4.5" transform="rotate(47.181 101.681 62.0791)" fill="#275D8B"/>
</g>
<g id="dots_3">
<circle id="Ellipse 13_3" cx="41.9907" cy="43.1378" r="4.5" transform="rotate(47.181 41.9907 43.1378)" fill="#F3C21E"/>
<circle id="Ellipse 16_3" cx="31.1157" cy="31.4017" r="4.5" transform="rotate(47.181 31.1157 31.4017)" fill="#F3C21E"/>
<circle id="Ellipse 14_3" cx="52.8656" cy="54.8738" r="4.5" transform="rotate(47.181 52.8656 54.8738)" fill="#F3C21E"/>
<circle id="Ellipse 15_3" cx="63.7406" cy="66.6099" r="4.5" transform="rotate(47.181 63.7406 66.6099)" fill="#F3C21E"/>
</g>
<g id="dots_4">
<circle id="Ellipse 13_4" cx="18.2327" cy="42.3904" r="4.5" transform="rotate(47.181 18.2327 42.3904)" fill="#EDB915"/>
<circle id="Ellipse 16_4" cx="7.35766" cy="30.6543" r="4.5" transform="rotate(47.181 7.35766 30.6543)" fill="#EDB915"/>
<circle id="Ellipse 14_4" cx="29.1075" cy="54.1264" r="4.5" transform="rotate(47.181 29.1075 54.1264)" fill="#EDB915"/>
<circle id="Ellipse 15_4" cx="39.9825" cy="65.8625" r="4.5" transform="rotate(47.181 39.9825 65.8625)" fill="#EDB915"/>
</g>
</g>
</svg>
