<svg width="72" height="72" viewBox="0 0 72 72" fill="none" xmlns="http://www.w3.org/2000/svg">
<g id="payment-gateway 1" clip-path="url(#clip0_81_335)">
<path id="Vector" d="M4.13135 64.0245H29.4587V65.0619H4.13135V64.0245ZM65.018 19.6265L65.0153 19.5736C64.7705 17.1828 62.7701 15.3801 60.3623 15.3801H48.756L48.6002 15.5749C47.8332 16.5324 46.6862 17.0815 45.4538 17.0815H26.3292L22.9402 20.0156V15.3801H11.4481C10.2859 15.3787 9.16516 15.8114 8.30602 16.5933C7.45074 17.366 6.91244 18.4278 6.7951 19.5738L6.79245 19.6217C6.77866 19.7647 6.77173 19.9082 6.77169 20.0519V47.7613C6.77169 47.9018 6.77462 48.0693 6.79496 48.235C7.0087 50.3591 8.63874 52.0619 10.7643 52.3763C10.9443 52.4011 11.1846 52.4297 11.448 52.4297H60.362C60.6213 52.4297 60.8542 52.4029 61.0547 52.3757C63.1728 52.0614 64.8014 50.3588 65.0141 48.2457C65.0354 48.0688 65.0384 47.9016 65.0384 47.7614V20.052C65.0389 19.91 65.0321 19.7679 65.018 19.6265ZM64.0001 47.7613C64.0001 47.8704 63.9982 47.9985 63.9822 48.1313C63.8158 49.7816 62.5496 51.105 60.9084 51.3486C60.7491 51.3702 60.5595 51.3923 60.3622 51.3923H11.4481C11.29 51.3923 11.1279 51.3794 10.9114 51.3495C10.1103 51.2322 9.37142 50.8506 8.81248 50.2654C8.25354 49.6802 7.90664 48.925 7.82699 48.12C7.81209 47.9985 7.81013 47.8704 7.81013 47.7614V20.052C7.81013 19.9348 7.81626 19.8176 7.82825 19.7003L7.83076 19.6551C7.92726 18.7726 8.34492 17.9564 9.00435 17.3614C9.6724 16.7531 10.5441 16.4165 11.448 16.4177H21.9016V22.2878L26.7164 18.1191H45.4534C46.9177 18.1191 48.2861 17.5021 49.2464 16.4177H60.362C62.2354 16.4177 63.7917 17.8199 63.9794 19.6474L63.982 19.7003C63.9941 19.8176 64 19.9348 64 20.052V47.7613H64.0001Z" fill="#154B69"/>
<path id="Vector_2" d="M62.8096 19.8168C62.793 19.6683 62.7641 19.5214 62.7231 19.3777C62.4841 18.5443 61.8472 17.9115 61.0408 17.697C60.8907 17.6523 60.7365 17.6233 60.5804 17.6106C60.4904 17.6003 60.4142 17.6003 60.3657 17.6003H26.5229L22.4211 21.1517V17.6003H11.4516C11.3996 17.6003 11.3271 17.6003 11.237 17.6106C11.0813 17.6244 10.929 17.6486 10.7837 17.6935C9.95979 17.9183 9.32987 18.5476 9.09788 19.3603C9.03141 19.586 8.99763 19.8201 8.99756 20.0554V47.7612C8.99756 47.8164 8.99756 47.8995 9.00787 47.9963C9.02166 48.1346 9.04939 48.2763 9.09091 48.4182L9.09788 48.4493C9.11181 48.5013 9.12909 48.5496 9.14637 48.5877C9.30214 49.0338 9.58596 49.4211 9.97024 49.7116L10.0013 49.7358C10.0498 49.767 10.0913 49.798 10.1328 49.8222C10.1986 49.8672 10.2575 49.8982 10.3094 49.9259C10.6004 50.0834 10.921 50.1788 11.2508 50.206L11.3062 50.2095C11.3684 50.2164 11.4204 50.2164 11.4515 50.2164H60.3657C60.3969 50.2164 60.4487 50.2164 60.511 50.2095L60.5665 50.206C60.8963 50.1787 61.2169 50.0833 61.5079 49.9259C61.5599 49.8982 61.6187 49.8672 61.6845 49.8222C61.726 49.798 61.7675 49.767 61.816 49.7358L61.8472 49.7116C62.2315 49.4211 62.5153 49.0338 62.6711 48.5877C62.6884 48.5497 62.7058 48.5013 62.7196 48.4493L62.7265 48.4182C62.7681 48.2763 62.7958 48.1346 62.8096 47.9963C62.8199 47.8994 62.8199 47.8164 62.8199 47.7612V20.0555C62.8199 19.9724 62.8199 19.8929 62.8096 19.8168ZM25.999 43.0241H13.7973V39.4417H25.999V43.0241ZM26.2897 28.5063C26.2897 30.1601 24.942 31.5063 23.2889 31.5063H17.9104C16.255 31.5063 14.9072 30.1601 14.9072 28.5062V26.5617C14.9072 24.9103 16.255 23.5639 17.9104 23.5639L23.2889 23.5641C24.9419 23.5641 26.2897 24.9103 26.2897 26.5617V28.5063ZM41.7721 43.0241H29.5704V39.4417H41.7721V43.0241ZM43.9552 27.1411C43.9552 24.7089 45.9366 22.7324 48.3682 22.7324C49.3707 22.7324 50.3146 23.0593 51.1037 23.684L51.4603 23.9644L51.8957 23.8359C52.2113 23.7454 52.5358 23.6957 52.866 23.6957C54.7627 23.6957 56.3088 25.2402 56.3088 27.1409C56.3088 29.0387 54.7627 30.5832 52.866 30.5832C52.5358 30.5832 52.2114 30.5366 51.8957 30.443L51.4603 30.3146L51.1037 30.5978C50.3146 31.2197 49.3707 31.5496 48.3682 31.5496C45.9367 31.5498 43.9552 29.5703 43.9552 27.1411ZM57.5452 43.0241H45.3435V39.4417H57.5452V43.0241Z" fill="#154B69"/>
<path id="Vector_3" d="M29.0502 38.9217V43.5419H42.291V38.9217H29.0502ZM41.2526 42.5044H30.0886V39.9589H41.2526V42.5044ZM13.2773 38.9217V43.5419H26.5181V38.9217H13.2773ZM25.4796 42.5044H14.3156V39.9589H25.4796V42.5044ZM44.8231 38.9217V43.5419H58.064V38.9217H44.8231ZM57.0255 42.5044H45.8616V39.9589H57.0255V42.5044ZM44.9847 46.1195H57.8469V47.1569H44.9847V46.1195ZM23.2878 24.2564L17.9096 24.2563C16.6364 24.2563 15.6006 25.2912 15.6006 26.5632V28.507C15.6006 29.779 16.6364 30.8137 17.9096 30.8137L23.2878 30.8139C24.561 30.8139 25.5968 29.779 25.5968 28.507V26.5632C25.5968 25.2912 24.561 24.2564 23.2878 24.2564ZM24.5584 28.507C24.5584 29.2069 23.9884 29.7765 23.2878 29.7765L17.9096 29.7763C17.209 29.7763 16.639 29.207 16.639 28.5071V26.5633C16.639 25.8634 17.2089 25.2938 17.9096 25.2938L23.2878 25.294C23.9884 25.294 24.5584 25.8633 24.5584 26.5633V28.507Z" fill="#154B69"/>
<path id="Vector_4" d="M16.1199 27.0164H25.0777V28.0538H16.1199V27.0164Z" fill="#154B69"/>
<path id="Vector_5" d="M18.312 24.775H19.3505V27.535H18.312V24.775ZM21.9007 24.7752H22.9391V27.535H21.9007V24.7752ZM20.0796 27.535H21.118V30.2948H20.0796V27.535Z" fill="#154B69"/>
<path id="Vector_6" d="M44.9846 27.1412C44.9846 28.0384 45.3414 28.8989 45.9765 29.5333C46.6115 30.1678 47.4728 30.5242 48.3709 30.5242C49.2691 30.5242 50.1304 30.1678 50.7654 29.5333C51.4005 28.8989 51.7573 28.0384 51.7573 27.1412C51.7573 26.244 51.4005 25.3835 50.7654 24.7491C50.1304 24.1147 49.2691 23.7582 48.3709 23.7582C47.4728 23.7582 46.6115 24.1147 45.9765 24.7491C45.3414 25.3835 44.9846 26.244 44.9846 27.1412Z" fill="#154B69"/>
<path id="Vector_7" d="M50.4443 27.1413C50.4443 27.7822 50.6992 28.3968 51.1528 28.85C51.6064 29.3032 52.2216 29.5577 52.8631 29.5577C53.5046 29.5577 54.1199 29.3032 54.5735 28.85C55.0271 28.3968 55.2819 27.7822 55.2819 27.1413C55.2819 26.824 55.2194 26.5098 55.0978 26.2166C54.9763 25.9234 54.7981 25.6571 54.5735 25.4327C54.3489 25.2083 54.0822 25.0303 53.7888 24.9089C53.4953 24.7874 53.1808 24.7249 52.8631 24.7249C52.5455 24.7249 52.231 24.7874 51.9375 24.9089C51.644 25.0303 51.3774 25.2083 51.1528 25.4327C50.9282 25.6571 50.75 25.9234 50.6285 26.2166C50.5069 26.5098 50.4443 26.824 50.4443 27.1413Z" fill="#154B69"/>
<path id="Vector_8" d="M45.4545 0H26.9781C24.1783 0 21.9004 2.27555 21.9004 5.0728V22.2853L26.7158 18.1196H45.4545C48.2544 18.1196 50.532 15.8441 50.532 13.047V5.0728C50.5322 2.27555 48.2545 0 45.4545 0ZM49.4937 13.047C49.4937 15.2718 47.6819 17.0822 45.4545 17.0822H26.3289L22.939 20.0146V5.0728C22.939 2.84764 24.751 1.03741 26.9782 1.03741H45.4546C47.682 1.03741 49.4939 2.84764 49.4939 5.0728V13.047H49.4937Z" fill="#154B69"/>
<path id="Vector_9" d="M45.4544 2.24768H26.9782C25.4193 2.24768 24.1506 3.51491 24.1506 5.07263V17.3656L25.8774 15.8719H45.4544C47.0138 15.8719 48.2824 14.6045 48.2824 13.0467V5.07277C48.2824 3.51491 47.0138 2.24768 45.4544 2.24768Z" fill="#154B69"/>
<path id="Vector_10" d="M29.0637 6.63568H30.1022V11.5054H29.0637V6.63568Z" fill="#F5F9FC"/>
<path id="Vector_11" d="M27.2407 9.92273L31.3723 7.33887L31.9234 8.21816L27.7916 10.802L27.2407 9.92273Z" fill="#F5F9FC"/>
<path id="Vector_12" d="M27.2168 8.28458L27.7424 7.39011L31.9463 9.85525L31.4207 10.7497L27.2168 8.28458ZM35.7558 6.63568H36.7942V11.5054H35.7558V6.63568Z" fill="#F5F9FC"/>
<path id="Vector_13" d="M33.9321 9.92165L38.064 7.33765L38.6149 8.21694L34.483 10.8009L33.9321 9.92165Z" fill="#F5F9FC"/>
<path id="Vector_14" d="M33.9116 8.28346L34.4376 7.389L38.6411 9.85552L38.1151 10.7501L33.9116 8.28346ZM42.4481 6.63568H43.4865V11.5054H42.4481V6.63568Z" fill="#F5F9FC"/>
<path id="Vector_15" d="M40.6248 9.92304L44.7564 7.33917L45.3074 8.21846L41.1758 10.8023L40.6248 9.92304Z" fill="#F5F9FC"/>
<path id="Vector_16" d="M40.6043 8.28333L41.1302 7.38873L45.3335 9.85526L44.8075 10.7499L40.6043 8.28333ZM35.1514 51.911H36.1898V58.3376H35.1514V51.911Z" fill="#154B69"/>
<path id="Vector_17" d="M35.6705 57.8189C31.9591 57.8189 28.9395 60.8354 28.9395 64.5432C28.9395 68.251 31.9589 71.2676 35.6705 71.2676C39.3821 71.2676 42.4014 68.2511 42.4014 64.5432C42.4014 60.8354 39.3821 57.8189 35.6705 57.8189ZM35.6705 70.23C32.5316 70.23 29.978 67.6789 29.978 64.5432C29.978 61.4075 32.5317 58.8565 35.6705 58.8565C38.8095 58.8565 41.363 61.4076 41.363 64.5432C41.363 67.6789 38.8095 70.23 35.6705 70.23Z" fill="#154B69"/>
<path id="Vector_18" d="M37.6486 63.5948H33.6928C33.5785 63.5948 33.4689 63.6401 33.3881 63.7208C33.3074 63.8016 33.262 63.911 33.262 64.0252V67.3924C33.262 67.5066 33.3074 67.616 33.3881 67.6968C33.4689 67.7775 33.5785 67.8228 33.6928 67.8228H37.6486C37.7628 67.8228 37.8724 67.7775 37.9532 67.6968C38.034 67.616 38.0794 67.5066 38.0794 67.3924V64.0252C38.0794 63.911 38.034 63.8016 37.9532 63.7208C37.8724 63.6401 37.7628 63.5948 37.6486 63.5948Z" fill="#154B69"/>
<path id="Vector_19" d="M37.6484 63.076H33.6927C33.169 63.076 32.7429 63.5018 32.7429 64.0252V67.3924C32.7432 67.644 32.8433 67.8852 33.0214 68.0631C33.1995 68.241 33.4409 68.3411 33.6927 68.3414H37.6484C38.1723 68.3414 38.5986 67.9156 38.5986 67.3924V64.0252C38.5983 63.7735 38.4981 63.5322 38.3199 63.3543C38.1418 63.1764 37.9003 63.0763 37.6484 63.076ZM37.56 67.304H33.7811V64.1134H37.56V67.304Z" fill="#154B69"/>
<path id="Vector_20" d="M35.6706 60.0529C34.4736 60.0529 33.4998 61.0258 33.4998 62.2215V64.1134H37.8415V62.2215C37.8415 61.0257 36.8676 60.0529 35.6706 60.0529ZM36.803 63.076H34.5382V62.2215C34.5382 61.5978 35.0462 61.0903 35.6706 61.0903C36.2949 61.0903 36.8029 61.5978 36.8029 62.2215L36.803 63.076ZM41.8792 64.0245H67.2067V65.0619H41.8792V64.0245Z" fill="#154B69"/>
</g>
<defs>
<clipPath id="clip0_81_335">
<rect width="71.3382" height="71.2676" fill="white"/>
</clipPath>
</defs>
</svg>
