<svg width="62" height="62" viewBox="0 0 62 62" fill="none" xmlns="http://www.w3.org/2000/svg">
<g id="qr-code-4 1" clip-path="url(#clip0_81_299)">
<path id="Vector" d="M4 4H14V14H4V4ZM48 4H58V14H48V4ZM4 48H14V58H4V48Z" fill="#154B69"/>
<path id="Vector_2" d="M0 0V62H62V0H0ZM60 60H2V2H60V60Z" fill="#154B69"/>
<path id="Vector_3" d="M8 8H10V10H8V8ZM52 8H54V10H52V8ZM8 52H10V54H8V52ZM8 22H12V20H8V18H18V22H20V18H34V22H36V18H42V16H4V18H6V24H8V22ZM4 24H6V46H4V24ZM8 44H10V46H8V44ZM12 46H22V50H24V46H32V44H26V40H24V44H12V46ZM8 42H10V32H14V30H10V26H8V42ZM10 24H12V26H10V24Z" fill="#154B69"/>
<path id="Vector_4" d="M12 22H14V24H12V22ZM14 20H16V22H14V20ZM18 8H24V6H18V4H16V14H18V8Z" fill="#154B69"/>
<path id="Vector_5" d="M20 10H22V12H20V10ZM22 12H24V14H22V12ZM24 8H26V10H24V8ZM26 6H28V8H26V6ZM28 4H30V6H28V4ZM40 4H46V6H40V4ZM44 8H46V14H44V8ZM38 8H42V10H38V8ZM40 12H42V14H40V12ZM36 12H38V14H36V12ZM36 12V10H32V8H30V10H26V12H36ZM34 8H36V6H38V4H32V6H34V8ZM16 24H20V26H16V24ZM22 22H26V24H22V22ZM26 20H32V22H26V20ZM38 20H48V22H38V20ZM46 16H48V18H46V16ZM50 16H58V18H50V16ZM56 20H58V26H56V20ZM54 26H56V30H54V26ZM56 30H58V36H56V30ZM56 38H58V42H56V38ZM50 38H54V34H52V36H50V38ZM52 40H54V44H52V40ZM54 44V46H50V48H56V44H54ZM54 58H56V56H58V54H56V50H54V58ZM56 48H58V50H56V48ZM46 56H52V58H46V56ZM46 52H52V54H46V52ZM42 54H46V56H42V54ZM16 48H18V56H16V48ZM12 40H16V42H12V40ZM18 40H22V42H18V40ZM12 34H14V38H12V34ZM14 26H16V30H14V26ZM18 28H26V30H18V28ZM16 32H20V34H16V32ZM22 32H28V34H22V32ZM20 34H22V38H20V34ZM24 36H28V38H24V36ZM32 24H30V38H32V30H38V28H32V24ZM26 26H28V28H26V26Z" fill="#154B69"/>
<path id="Vector_6" d="M34 24V26H54V24H52V20H50V24H34ZM34 32H36V40H34V32ZM32 42H38V44H32V42ZM38 40H48V38H46V34H50V32H44V38H38V40Z" fill="#154B69"/>
<path id="Vector_7" d="M40 30H42V36H40V30ZM42 28H48V30H42V28ZM40 43.0001H42V52.0002H40V43.0001ZM44 48H50V50H44V48ZM46 42H48V46H46V42Z" fill="#154B69"/>
<path id="Vector_8" d="M38 46H36V56H34V52H32V56H18V58H42V56H38V46Z" fill="#154B69"/>
<path id="Vector_9" d="M20 52H26V54H20V52ZM26 50H30V52H26V50ZM30 48H32V50H30V48Z" fill="#154B69"/>
</g>
<defs>
<clipPath id="clip0_81_299">
<rect width="62" height="62" fill="white"/>
</clipPath>
</defs>
</svg>
