<svg width="60" height="60" viewBox="0 0 60 60" fill="none" xmlns="http://www.w3.org/2000/svg">
<g id="student-17 1" clip-path="url(#clip0_81_586)">
<path id="Vector" d="M14.7272 28.3636C14.7272 28.3636 13.7726 29.3182 12.5453 29.3182C11.3181 29.3182 10.3635 28.3636 10.3635 28.3636C10.3635 24.8182 11.4544 20.4545 11.8635 18.9545C11.4544 18.6818 11.3181 18.4091 11.3181 17.8636C11.3181 17.3182 11.7272 16.7727 12.2726 16.6364V14.1818L12.9544 14.5909V16.6364C13.4999 16.7727 13.909 17.3182 13.909 17.8636C13.909 18.2727 13.6363 18.6818 13.3635 18.9545C13.6363 19.9091 14.1817 21.9545 14.4544 24.4091C14.5908 25.6364 14.7272 27 14.7272 28.3636Z" fill="#3E6B83"/>
<path id="Vector_2" d="M16.5 27.5455V29.0455C16.6364 30.4091 17.0455 31.7727 18 33C18.5455 33.6818 18.8182 33.6818 19.6364 33.4091C19.9091 33.4091 20.3182 34.6364 20.4545 34.9091C21.4091 37.0909 23.0455 39.6818 26.0455 40.7727C28.0909 41.5909 30.4091 41.7273 32.4545 41.1818C34.6364 40.5 36.4091 39 37.7727 37.0909C39 35.4545 39.4091 34.3636 39.6818 33.9545C39.8182 33.8182 39.8182 33.5455 39.9545 33.5455C40.0909 33.5455 40.3636 33.6818 40.5 33.6818C40.9091 33.6818 41.1818 33.4091 41.4545 33.1364C42.2727 32.0455 42.8182 30.6818 42.9545 29.1818V27.6818C42.9545 26.8636 42.4091 26.1818 41.4545 26.1818H41.3182L41.1818 25.9091C41.1818 25.9091 41.1818 25.2273 41.3182 24.9545C41.3182 23.8636 41.4545 22.6364 41.5909 21.5455C41.5909 21.1364 41.7273 20.5909 41.7273 20.1818L38.8636 19.3636C38.7273 19.3636 37.5 19.0909 37.5 19.0909C36.8182 18.9545 32.8636 18.6818 29.0455 18.5455C26.0455 18.5455 23.1818 18.8182 22.5 18.9545C22.2273 18.9545 21.8182 19.0909 21.6818 19.0909C21.6818 19.0909 19.5 19.5 18.6818 19.9091L17.8636 20.1818C17.8636 21.2727 18 22.3636 18 23.4545C18 24.2727 18.1364 25.2273 18.1364 26.0455H18C17.0455 26.0455 16.6364 26.8636 16.5 27.5455ZM21 25.2273C23.4545 25.2273 25.6364 25.0909 27.5455 24.6818C28.2273 24.5455 29.0455 24.4091 29.8636 24.2727C32.3182 23.7273 34.2273 22.7727 35.8636 21.5455C36.6818 22.5 37.7727 23.3182 39.4091 24H39.5455V24.6818C39.4091 26.8636 39.1364 29.7273 38.7273 31.2273C38.3182 33 35.3182 40.0909 29.4545 39.9545C28.5 39.9545 27.5455 39.6818 26.7273 39.4091C23.7273 38.4545 22.0909 35.5909 20.8636 31.7727C20.3182 30.1364 20.0455 28.2273 20.0455 26.0455C20.0455 25.6364 20.0455 25.0909 19.9091 24.6818C20.3182 25.2273 20.7273 25.2273 21 25.2273Z" fill="#3E6B83"/>
<path id="Vector_3" d="M41.1819 15C41.1819 14.1818 41.1819 14.5909 41.0456 13.7727C40.9092 13.3636 40.9092 13.0909 40.5001 12.9545C40.091 12.6818 39.6819 12.4091 39.2728 12.2727C38.1819 11.7273 37.091 11.3182 35.8637 11.1818C33.2728 10.6364 30.6819 10.5 28.091 10.6364C27.0001 10.6364 25.9092 10.7727 24.8183 10.9091C23.0456 11.1818 21.2728 11.5909 19.6365 12.5455C19.091 12.6818 18.6819 12.9545 18.5456 13.6364C18.1365 15.2727 18.1365 16.7727 18.1365 18.4091V18.5455C19.091 18.1364 20.1819 17.8636 21.2728 17.7273C21.9547 17.5909 22.7728 17.4545 23.591 17.4545C24.1365 17.3182 26.3183 17.1818 28.3637 17.1818C30.2728 17.1818 32.1819 17.1818 34.2274 17.3182C35.591 17.4545 37.091 17.5909 38.4547 17.8636C38.7274 17.8636 39.1365 18 39.4092 18.1364L41.3183 18.6818C41.3183 17.7273 41.3183 15.8182 41.1819 15Z" fill="#3E6B83"/>
<path id="Vector_4" d="M17.1817 13.3636C17.4544 12.1364 18.2726 11.7273 18.9544 11.3182C20.5908 10.3636 22.3635 9.81818 24.6817 9.54545C25.6363 9.40909 29.1817 9.27273 29.7272 9.27273C32.0453 9.27273 34.0908 9.40909 36.1363 9.81818C37.4999 10.0909 38.7272 10.5 39.8181 11.0455C40.2272 11.3182 41.1817 11.8636 41.1817 11.8636C41.8635 12.2727 42.1363 12.9545 42.2726 13.5C42.409 14.1818 42.409 14.8636 42.409 15.4091V15.9545C42.409 15.9545 47.1817 13.2273 49.4999 11.8636C49.0908 11.5909 48.9544 11.4545 48.6817 11.3182C42.6817 7.90909 36.6817 4.5 30.5453 1.09091C29.8635 0.681818 29.4544 0.681818 28.7726 1.09091C22.909 4.5 16.909 7.77273 11.0453 11.1818C10.6363 11.4545 10.3635 11.5909 9.81807 12C10.909 12.5455 16.7726 16.0909 16.7726 16.0909C16.909 15 17.0453 14.1818 17.1817 13.3636ZM48.8181 47.4545C45.8181 45.5455 38.5908 42.9545 38.4544 42.9545C38.4544 42.9545 36.6817 46.6364 35.9999 48.1364C35.4544 49.0909 34.6363 49.2273 34.0908 48.2727C33.5453 47.4545 32.1817 45.5455 32.0453 45.2727C31.6363 44.7273 31.2272 44.5909 30.6817 45.1364C30.5453 45.2727 29.9999 45.8182 29.7272 45.8182C29.4544 45.8182 28.909 45.2727 28.7726 45.1364C28.2272 44.5909 27.9544 44.5909 27.409 45.2727C26.8635 45.9545 26.0453 47.3182 25.4999 47.8636C24.409 49.2273 23.4544 48.9545 22.909 47.8636C22.2272 46.0909 20.8635 42.8182 20.8635 42.8182C20.7272 42.8182 13.4999 45.4091 10.4999 47.3182C3.68171 51.5455 3.81807 58.9091 3.81807 58.9091H56.0453C56.1817 59.1818 56.9999 52.9091 48.8181 47.4545Z" fill="#3E6B83"/>
<path id="Vector_5" d="M56.1817 60C56.0453 60 56.0453 60 56.1817 60H3.81807C3.27262 60 2.86353 59.5909 2.86353 59.1818C2.86353 59.0455 2.86353 57.1364 3.68171 54.6818C4.49989 52.3636 6.13625 49.2273 9.95443 46.7727C12.9544 44.7273 20.4544 42.1364 20.5908 42.1364C20.9999 42 21.409 42.2727 21.5453 42.5455C21.5453 42.6818 21.5453 42.6818 21.9544 43.3636C22.3635 44.4545 23.1817 46.3636 23.7272 47.5909C23.8635 47.8636 23.9999 48 23.9999 48C23.9999 48 24.2726 47.8636 24.6817 47.4545C24.9544 47.0455 25.4999 46.2273 26.0453 45.6818C26.3181 45.4091 26.4544 45.1364 26.5908 44.8636C26.8635 44.4545 27.2726 44.0455 27.9544 44.0455C28.6363 44.0455 29.0453 44.4545 29.3181 44.7273L29.5908 45C29.7272 44.8636 29.8635 44.8636 29.8635 44.7273C30.2726 44.3182 30.8181 44.0455 31.2272 44.0455C31.7726 44.0455 32.1817 44.3182 32.5908 44.8636C32.7272 45 33.1363 45.5455 33.5453 46.2273C33.9544 46.7727 34.3635 47.4545 34.6363 47.8636L34.909 48.1364C34.909 48.1364 35.0453 48 35.0453 47.8636C35.3181 47.3182 37.4999 42.6818 37.6363 42.6818C37.7726 42.4091 38.1817 42.1364 38.5908 42.2727C38.8635 42.2727 46.2272 44.8636 49.2272 46.9091C51.1363 48.1364 52.7726 49.6364 53.9999 51.1364C54.9544 52.3636 55.7726 53.7273 56.3181 55.0909C56.7272 56.0455 56.8635 57.1364 56.9999 58.0909C56.9999 58.2273 57.1362 59.1818 56.9999 59.5909C56.8635 59.7273 56.4544 60 56.1817 60ZM4.77262 58.2273H55.2272C55.0908 56.4545 54.1363 52.2273 48.2726 48.2727C45.9544 46.7727 40.7726 44.7273 38.8635 44.0455C38.3181 45.1364 37.2272 47.3182 36.6817 48.5455C36.409 48.9545 35.9999 49.7727 35.0453 49.9091C34.6363 49.9091 33.8181 49.9091 33.1363 48.9545C32.8635 48.5455 32.4544 48 32.0453 47.3182C31.6363 46.6364 31.2272 46.2273 31.0908 45.9545L30.6817 46.3636C30.2726 46.7727 29.9999 46.9091 29.5908 46.9091C29.3181 46.9091 28.909 46.7727 28.4999 46.3636C28.3635 46.2273 28.0908 46.0909 28.0908 45.9545C27.9544 46.2273 27.6817 46.5 27.5453 46.7727C27.1363 47.4545 26.5908 48.1364 26.1817 48.6818C25.2272 49.9091 24.409 50.0455 23.8635 49.9091C23.1817 49.7727 22.4999 49.3636 22.2272 48.4091C21.6817 47.1818 20.9999 45.2727 20.4544 44.1818C18.409 44.8636 13.3635 46.7727 11.0453 48.4091C5.99989 51.4091 5.04534 56.1818 4.77262 58.2273ZM42.409 16.9091C42.2726 16.9091 42.1362 16.9091 41.9999 16.7727C41.7272 16.6364 41.5908 16.3636 41.5908 15.9545V15.4091C41.5908 14.8636 41.5908 14.3182 41.4544 13.6364C41.3181 13.0909 41.1817 12.8182 40.7726 12.5455C40.3635 12.2727 39.8181 11.8636 39.5453 11.7273C38.4544 11.1818 37.3635 10.7727 36.1363 10.5C34.2272 10.0909 32.1817 9.95455 29.9999 9.95455C29.4544 9.95455 26.0453 10.0909 25.0908 10.2273C22.909 10.5 21.2726 11.0455 19.7726 11.8636C19.0908 12.2727 18.6817 12.5455 18.409 13.3636C18.2726 14.0455 18.1363 14.8636 18.1363 15.8182C18.1363 16.0909 17.9999 16.3636 17.7272 16.6364C17.4544 16.7727 17.0453 16.7727 16.7726 16.6364C16.7726 16.6364 10.7726 13.2273 9.81807 12.5455C9.13625 12.5455 8.99989 12.2727 8.99989 12C8.99989 11.7273 9.13625 11.3182 9.40898 11.1818C9.54534 11.0455 9.68171 11.0455 9.81807 10.9091C10.0908 10.7727 10.3635 10.5 10.6363 10.3636C11.8635 9.68182 13.2272 9 14.4544 8.18182C19.0908 5.59091 23.7272 2.86364 28.4999 0.272727C29.4544 -0.272728 30.2726 -0.272728 31.0908 0.272727C35.1817 2.59091 39.409 5.04545 43.4999 7.36364C45.409 8.45455 47.1817 9.54545 49.0908 10.6364C49.3635 10.7727 49.6362 10.9091 49.909 11.1818L50.0453 11.3182C50.3181 11.4545 50.4544 11.7273 50.4544 12C50.4544 12.2727 50.3181 12.5455 50.0453 12.6818C47.8635 13.9091 42.9544 16.7727 42.9544 16.7727C42.6817 16.9091 42.5453 16.9091 42.409 16.9091ZM29.7272 8.31818C32.0453 8.31818 34.2272 8.59091 36.2726 9C37.7726 9.27273 38.9999 9.68182 40.2272 10.3636C40.6363 10.6364 41.5908 11.1818 41.7272 11.1818C42.6817 11.8636 42.9544 12.6818 43.2272 13.3636C43.3635 13.7727 43.3635 14.1818 43.3635 14.5909C44.5908 13.9091 46.3635 12.8182 47.8635 12C46.0908 11.0455 44.4544 10.0909 42.6817 9.13636C38.5908 6.81818 34.3635 4.5 30.2726 2.04545C29.8635 1.77273 29.7272 1.77273 29.4544 2.04545C24.5453 4.63636 19.909 7.22727 15.2726 9.81818L11.5908 11.8636C12.9544 12.6818 14.8635 13.7727 16.0908 14.4545C16.0908 13.9091 16.2272 13.5 16.3635 13.0909C16.7726 11.4545 17.8635 10.9091 18.5453 10.5C20.1817 9.54545 22.0908 9 24.5453 8.59091C25.6363 8.45454 29.1817 8.31818 29.7272 8.31818Z" fill="#265C89"/>
<path id="Vector_6" d="M24.6819 27.6818C24.6819 27.8988 24.7681 28.1069 24.9215 28.2604C25.075 28.4138 25.2831 28.5 25.5001 28.5C25.7171 28.5 25.9252 28.4138 26.0786 28.2604C26.232 28.1069 26.3182 27.8988 26.3182 27.6818C26.3182 27.4648 26.232 27.2567 26.0786 27.1033C25.9252 26.9498 25.7171 26.8636 25.5001 26.8636C25.2831 26.8636 25.075 26.9498 24.9215 27.1033C24.7681 27.2567 24.6819 27.4648 24.6819 27.6818Z" fill="#3E6B83"/>
<path id="Vector_7" d="M33.1365 27.6818C33.1365 27.8988 33.2227 28.1069 33.3761 28.2604C33.5296 28.4138 33.7377 28.5 33.9547 28.5C34.1717 28.5 34.3798 28.4138 34.5332 28.2604C34.6866 28.1069 34.7728 27.8988 34.7728 27.6818C34.7728 27.4648 34.6866 27.2567 34.5332 27.1033C34.3798 26.9498 34.1717 26.8636 33.9547 26.8636C33.7377 26.8636 33.5296 26.9498 33.3761 27.1033C33.2227 27.2567 33.1365 27.4648 33.1365 27.6818Z" fill="#3E6B83"/>
<path id="Vector_8" d="M32.3183 35.7273C32.3183 35.7273 31.091 36.5455 29.7274 36.5455C28.3637 36.5455 27.1365 35.7273 27.1365 35.7273C27.1365 35.7273 28.3637 36.1364 29.7274 36.1364C31.091 36.1364 32.3183 35.7273 32.3183 35.7273Z" fill="#3E6B83"/>
<path id="Vector_9" d="M24.6819 6.68182C24.4092 6.27273 24.5456 5.72727 24.9547 5.59091L28.3637 3.68182C28.7728 3.40909 29.3183 3.54545 29.4547 3.95454C29.7274 4.36364 29.591 4.90909 29.1819 5.04545L25.9092 7.09091C25.5001 7.22727 24.9547 7.09091 24.6819 6.68182Z" fill="#FCFCFF"/>
<path id="Vector_10" d="M22.2273 7.63636C22.2273 7.85336 22.3135 8.06147 22.4669 8.21491C22.6204 8.36834 22.8285 8.45455 23.0455 8.45455C23.2625 8.45455 23.4706 8.36834 23.624 8.21491C23.7775 8.06147 23.8637 7.85336 23.8637 7.63636C23.8637 7.41937 23.7775 7.21126 23.624 7.05782C23.4706 6.90438 23.2625 6.81818 23.0455 6.81818C22.8285 6.81818 22.6204 6.90438 22.4669 7.05782C22.3135 7.21126 22.2273 7.41937 22.2273 7.63636Z" fill="#FCFCFF"/>
</g>
<defs>
<clipPath id="clip0_81_586">
<rect width="60" height="60" fill="white"/>
</clipPath>
</defs>
</svg>
