<svg width="61" height="61" viewBox="0 0 61 61" fill="none" xmlns="http://www.w3.org/2000/svg">
<g id="subscription-2 1">
<path id="Vector" d="M53.4738 59.8812V18.1928V12.2071V1.58052C53.4738 0.874341 52.9025 0.336304 52.23 0.336304H8.61531C7.9088 0.336304 7.37109 0.907969 7.37109 1.58052V59.814C7.37109 59.814 7.37109 60.3184 7.74099 60.4865C8.21178 60.7216 8.54805 60.5878 8.54805 60.5878L29.3298 47.843C29.3298 47.843 29.9014 47.4391 30.4058 47.4731C31.0111 47.4388 31.65 47.9099 31.65 47.9099L52.499 60.6547C52.499 60.6547 52.9694 60.7216 53.2724 60.4865C53.5411 60.2518 53.4738 59.8812 53.4738 59.8812ZM46.858 9.37096C46.858 9.55659 46.7188 9.70724 46.5469 9.70724H14.3051C14.1332 9.70724 13.994 9.55659 13.994 9.37096V6.5688C13.994 6.38317 14.1332 6.23252 14.3051 6.23252H46.5469C46.7188 6.23252 46.858 6.38317 46.858 6.5688V9.37096Z" fill="#154B69"/>
</g>
</svg>
