<svg width="63" height="65" viewBox="0 0 63 65" fill="none" xmlns="http://www.w3.org/2000/svg">
<g id="class-list 1">
<path id="Vector" d="M12.6 10.8333C12.0431 10.8333 11.509 11.0616 11.1151 11.4679C10.7213 11.8743 10.5 12.4254 10.5 13V23.8333C10.5 24.408 10.7213 24.9591 11.1151 25.3654C11.509 25.7717 12.0431 26 12.6 26H23.1C23.657 26 24.1911 25.7717 24.585 25.3654C24.9788 24.9591 25.2 24.408 25.2 23.8333V13C25.2 12.4254 24.9788 11.8743 24.585 11.4679C24.1911 11.0616 23.657 10.8333 23.1 10.8333H12.6ZM12.6 6.5H23.1C24.7709 6.5 26.3733 7.18482 27.5548 8.40381C28.7363 9.62279 29.4 11.2761 29.4 13V23.8333C29.4 25.5572 28.7363 27.2105 27.5548 28.4295C26.3733 29.6485 24.7709 30.3333 23.1 30.3333H12.6C10.9292 30.3333 9.32676 29.6485 8.14528 28.4295C6.9638 27.2105 6.30005 25.5572 6.30005 23.8333V13C6.30005 11.2761 6.9638 9.62279 8.14528 8.40381C9.32676 7.18482 10.9292 6.5 12.6 6.5ZM12.6 39C12.0431 39 11.509 39.2283 11.1151 39.6346C10.7213 40.0409 10.5 40.592 10.5 41.1667V52C10.5 52.5746 10.7213 53.1257 11.1151 53.5321C11.509 53.9384 12.0431 54.1667 12.6 54.1667H23.1C23.657 54.1667 24.1911 53.9384 24.585 53.5321C24.9788 53.1257 25.2 52.5746 25.2 52V41.1667C25.2 40.592 24.9788 40.0409 24.585 39.6346C24.1911 39.2283 23.657 39 23.1 39H12.6ZM12.6 34.6667H23.1C24.7709 34.6667 26.3733 35.3515 27.5548 36.5705C28.7363 37.7895 29.4 39.4428 29.4 41.1667V52C29.4 52.8536 29.2371 53.6988 28.9205 54.4874C28.6039 55.2761 28.1398 55.9926 27.5548 56.5962C26.9698 57.1998 26.2753 57.6786 25.511 58.0052C24.7466 58.3319 23.9274 58.5 23.1 58.5H12.6C11.7727 58.5 10.9535 58.3319 10.1891 58.0052C9.42479 57.6786 8.73029 57.1998 8.14528 56.5962C7.56027 55.9926 7.09621 55.2761 6.77961 54.4874C6.463 53.6988 6.30005 52.8536 6.30005 52V41.1667C6.30005 39.4428 6.9638 37.7895 8.14528 36.5705C9.32676 35.3515 10.9292 34.6667 12.6 34.6667Z" fill="#154B69"/>
<path id="Vector_2" d="M45.1501 10.8333C44.1848 10.8332 43.229 11.0293 42.3372 11.4104C41.4453 11.7914 40.635 12.35 39.9524 13.0542C39.2698 13.7584 38.7284 14.5944 38.359 15.5145C37.9896 16.4346 37.7994 17.4208 37.7994 18.4167C37.7994 19.4126 37.9896 20.3987 38.359 21.3188C38.7284 22.2389 39.2698 23.075 39.9524 23.7791C40.635 24.4833 41.4453 25.0419 42.3372 25.423C43.229 25.804 44.1848 26.0001 45.1501 26C47.0993 25.9998 48.9686 25.2008 50.3469 23.7786C51.7251 22.3565 52.4994 20.4278 52.4994 18.4167C52.4994 16.4056 51.7251 14.4768 50.3469 13.0547C48.9686 11.6326 47.0993 10.8335 45.1501 10.8333ZM45.1501 6.5C51.5288 6.5 56.7001 11.8354 56.7001 18.4167C56.7001 24.9979 51.5288 30.3333 45.1501 30.3333C38.7713 30.3333 33.6001 24.9979 33.6001 18.4167C33.6001 11.8354 38.7713 6.5 45.1501 6.5Z" fill="#154B69"/>
<path id="Vector_3" d="M39.9001 39C39.3431 39 38.809 39.2282 38.4152 39.6346C38.0213 40.0409 37.8001 40.592 37.8001 41.1666V52C37.8001 52.5746 38.0213 53.1257 38.4152 53.532C38.809 53.9384 39.3431 54.1666 39.9001 54.1666H50.4001C50.957 54.1666 51.4912 53.9384 51.885 53.532C52.2788 53.1257 52.5001 52.5746 52.5001 52V41.1666C52.5001 40.592 52.2788 40.0409 51.885 39.6346C51.4912 39.2282 50.957 39 50.4001 39H39.9001ZM39.9001 34.6666H50.4001C51.2274 34.6666 52.0466 34.8347 52.811 35.1614C53.5753 35.4881 54.2699 35.9669 54.8549 36.5704C55.4399 37.174 55.9039 37.8906 56.2205 38.6792C56.5371 39.4678 56.7001 40.313 56.7001 41.1666V52C56.7001 52.8535 56.5371 53.6988 56.2205 54.4874C55.9039 55.276 55.4399 55.9926 54.8549 56.5962C54.2699 57.1997 53.5753 57.6785 52.811 58.0052C52.0466 58.3318 51.2274 58.5 50.4001 58.5H39.9001C39.0728 58.5 38.2535 58.3318 37.4892 58.0052C36.7248 57.6785 36.0303 57.1997 35.4453 56.5962C34.8603 55.9926 34.3963 55.276 34.0797 54.4874C33.763 53.6988 33.6001 52.8535 33.6001 52V41.1666C33.6001 39.4427 34.2638 37.7894 35.4453 36.5704C36.6268 35.3514 38.2292 34.6666 39.9001 34.6666Z" fill="#154B69"/>
</g>
</svg>
