<svg width="72" height="72" viewBox="0 0 72 72" fill="none" xmlns="http://www.w3.org/2000/svg">
<g id="fees 1">
<path id="Vector" d="M47.1157 24.6521L47.2454 24.393C47.3751 24.1662 47.5373 23.907 47.6994 23.6803C47.894 23.3887 48.0885 23.0972 48.2506 22.8704C48.5749 22.4169 48.8992 21.9634 49.2234 21.5423C49.2234 21.5099 49.418 21.3155 49.9044 20.9915C50.5854 20.538 51.2015 19.9549 51.6879 19.2423C52.1743 18.562 52.4985 17.7845 52.6282 16.9423C52.8228 15.9056 52.6931 14.869 52.2391 13.9296C51.8824 13.1521 51.1366 12.0507 49.5477 11.4352C48.8992 11.1761 48.2182 11.0465 47.5048 11.0465C47.2454 11.0465 47.0184 11.0789 46.7915 11.1113C46.2726 11.1761 45.7862 11.338 45.2998 11.5324L45.235 11.4676C44.6189 10.8845 43.9055 10.4958 43.0948 10.2366C42.349 9.91267 41.5059 9.7507 40.6953 9.7507C39.9819 9.7507 39.3334 9.88028 38.7173 10.1394C38.3606 10.3014 38.0039 10.4958 37.6472 10.6901C36.9338 10.269 36.1232 9.97746 35.3125 9.88028C34.9882 9.81549 34.664 9.81549 34.3397 9.81549C33.2372 9.81549 32.1671 10.1394 31.2268 10.7225C30.8052 11.0141 30.3837 11.3056 29.9621 11.6296L29.7351 11.5648C29.1839 11.4028 28.6002 11.2732 28.049 11.2084C26.7843 11.0465 25.4873 11.4028 24.4821 12.2127C22.7959 13.5408 22.1474 15.6465 22.7959 17.6549C23.185 18.9183 23.9957 20.0521 25.0982 20.8296C25.4224 21.0887 25.7791 21.3803 26.1358 21.7042C26.3628 21.931 26.5898 22.1901 26.7843 22.4817C26.9789 22.8056 27.2383 23.1944 27.4977 23.5831C27.6923 23.8747 27.8868 24.1986 28.0814 24.4901L28.1462 24.5549L28.276 24.7817C27.9517 25.2028 27.595 25.6239 27.1735 26.1099L27.0762 26.2394C26.6546 26.7577 26.1034 27.3732 25.4224 28.0211C24.6118 28.7986 23.8011 29.5761 22.958 30.3211C21.661 31.4873 20.4936 32.7507 19.456 34.1113C18.321 35.6014 17.3807 37.2211 16.6673 38.938C15.9215 40.7521 15.4026 42.631 15.1108 44.5747C14.819 46.7127 14.8838 48.8507 15.2729 50.9887C15.6296 52.9972 16.3754 55.038 17.4779 57.0465C18.6453 59.1197 20.1693 60.9986 21.9852 62.5535C23.866 64.1733 26.1358 65.5014 28.7623 66.4733C31.3889 67.4451 34.4045 67.9634 37.712 67.9634C40.8898 67.9634 43.8082 67.5423 46.4023 66.7C48.9965 65.8578 51.2987 64.6592 53.2119 63.2014C55.1575 61.7437 56.7788 59.8972 58.011 57.824C59.1784 55.8155 59.989 53.6127 60.4106 51.3451C60.8321 48.6563 60.897 46.1944 60.5727 43.9916C60.2484 41.7887 59.6323 39.7803 58.7892 38.031C58.011 36.4113 57.0058 34.8887 55.806 33.5282C54.8332 32.4268 53.7956 31.3578 52.6931 30.3859C51.8176 29.6409 50.942 28.8634 50.1314 28.0535C49.4504 27.4056 47.8615 25.7535 47.2454 25.0732" fill="#3E6B83"/>
<path id="Vector_2" d="M34.5666 64.7888C31.0645 64.7888 27.8543 64.2704 25.0332 63.2014C22.2445 62.1648 19.8125 60.7395 17.7696 58.9902C15.8051 57.322 14.1574 55.3139 12.9057 53.062C11.7059 50.924 10.9277 48.6887 10.5061 46.5183C10.0846 44.2183 10.0197 41.9183 10.344 39.6183C10.6358 37.5451 11.1871 35.5042 11.9977 33.593C12.776 31.7465 13.7812 30.0296 14.981 28.4099C16.0835 26.9521 17.3481 25.5916 18.71 24.3606C19.5531 23.6155 20.3638 22.838 21.1096 22.1254C21.7257 21.5099 22.2445 20.9592 22.6336 20.4732L22.7309 20.3437L22.7633 20.3113C22.8606 20.1817 22.9903 20.0521 23.0876 19.9225C23.0552 19.8578 23.0227 19.793 22.9579 19.7606C22.666 19.3718 22.4391 18.9831 22.2121 18.6268C22.0824 18.4324 21.9527 18.2704 21.823 18.1409C21.5311 17.8493 21.2069 17.5901 20.9474 17.3958C19.5855 16.424 18.5803 14.9986 18.0615 13.3789C17.2184 10.7225 18.0615 7.96902 20.2989 6.18733C21.6284 5.11831 23.3794 4.6324 25.0656 4.85916C25.5196 4.92395 26.006 4.98874 26.4924 5.11831C26.7194 4.95634 26.9788 4.79437 27.2057 4.6324C28.4055 3.88733 29.7999 3.4662 31.1942 3.4662C31.5833 3.4662 32.0049 3.4986 32.4264 3.56339C33.1398 3.66057 33.8207 3.85493 34.4693 4.14648C34.6314 4.08169 34.7611 4.01691 34.9232 3.95212C35.7339 3.59578 36.6418 3.43381 37.5498 3.43381C38.6199 3.4662 39.5927 3.66057 40.533 4.01691C41.2464 4.24367 41.8949 4.6 42.511 5.02113C42.8029 4.95634 43.1271 4.89155 43.419 4.82677H43.4838C43.7108 4.79437 44.0351 4.76198 44.3918 4.76198C45.3321 4.76198 46.2076 4.95634 47.0183 5.28029C49.0936 6.12254 50.0988 7.54789 50.5852 8.61691C51.1689 9.88029 51.331 11.2409 51.104 12.6014C50.9095 13.638 50.4879 14.6423 49.9043 15.5169C49.2882 16.3916 48.5424 17.1366 47.6668 17.6873C47.4723 17.8169 47.375 17.9141 47.3102 17.9465C46.9859 18.3352 46.694 18.7563 46.4346 19.1451L46.3049 19.3394C46.1752 19.5014 46.0779 19.6958 45.9482 19.8902C46.6616 20.6676 47.6668 21.6718 48.1532 22.1578C48.9639 22.9352 49.7746 23.7127 50.6176 24.393L50.6501 24.4254C51.8174 25.462 52.9199 26.5958 53.8927 27.7296C55.1898 29.2197 56.2599 30.8718 57.1029 32.5887C58.0433 34.5 58.6918 36.6704 59.0485 39.0028C59.4052 41.3676 59.3404 43.9916 58.8864 46.8423C58.4324 49.3366 57.5569 51.7014 56.2923 53.8718C54.9628 56.1395 53.2118 58.1155 51.0716 59.7352C48.9963 61.3226 46.5643 62.5535 43.7757 63.493C41.0518 64.3352 37.9389 64.7888 34.5666 64.7888ZM25.2602 22.3845L25.1953 22.4817C24.7413 23.0648 24.1252 23.7127 23.4119 24.393C22.6336 25.1704 21.7905 25.9803 20.915 26.7578C19.7152 27.8268 18.5803 29.0254 17.6075 30.3211C16.5699 31.7141 15.6944 33.2366 15.0134 34.7916C14.3 36.4437 13.846 38.2254 13.5866 40.0071C13.3272 41.9507 13.3597 43.9268 13.7163 45.9028C14.0406 47.7493 14.7216 49.6282 15.7592 51.4747C16.8293 53.3859 18.2236 55.1028 19.9098 56.5282C21.6608 58.0183 23.7685 59.2493 26.2005 60.1564C28.6325 61.0634 31.4536 61.5493 34.599 61.5493C37.6146 61.5493 40.3709 61.1606 42.7704 60.3507C45.2024 59.5409 47.3426 58.4719 49.0936 57.1113C50.8771 55.7507 52.3687 54.0986 53.4712 52.1873C54.5412 50.3409 55.2871 48.3324 55.6762 46.2592C56.0653 43.7648 56.1301 41.4648 55.8059 39.4564C55.514 37.4155 54.9628 35.569 54.1521 33.9817C53.4387 32.4916 52.4984 31.0986 51.3959 29.8028C50.5204 28.7986 49.5151 27.7944 48.4451 26.8225C47.5371 26.0775 46.6616 25.2676 45.7861 24.4254C45.1051 23.7451 43.4838 22.093 42.8353 21.3479C42.7056 21.1859 42.5759 20.9916 42.511 20.7972C42.2192 20.3113 42.2192 19.6958 42.4786 19.1775L42.6083 18.9183C42.7704 18.6268 42.9326 18.3352 43.1271 18.0761C43.2568 17.8817 43.3866 17.6549 43.5163 17.493L43.6784 17.2662C44.0027 16.7803 44.3593 16.3268 44.716 15.8409C44.943 15.5493 45.2997 15.2578 45.8185 14.9338C46.3374 14.6099 46.7913 14.1563 47.148 13.638C47.5047 13.1197 47.7317 12.569 47.829 11.9859C47.9587 11.3056 47.8614 10.593 47.5696 9.94508C47.2129 9.16761 46.5968 8.61691 45.7537 8.26057C45.3321 8.0986 44.8133 8.00141 44.2945 8.00141C44.1648 8.00141 44.0027 8.00141 43.8081 8.03381C43.419 8.0986 43.0299 8.19578 42.6732 8.32536C42.0571 8.55212 41.3761 8.42254 40.9221 7.96902L40.8897 7.93663C40.4682 7.54789 39.9493 7.25634 39.3657 7.06198C39.3332 7.06198 39.2684 7.02958 39.236 6.99719C38.6847 6.77043 38.0686 6.64085 37.4201 6.64085C36.9661 6.64085 36.5121 6.73803 36.0906 6.90001C35.7988 7.02958 35.5069 7.15916 35.2799 7.32113C34.7611 7.64508 34.1126 7.64508 33.5938 7.35353C33.0425 7.02958 32.4588 6.83522 31.8752 6.73803C31.5833 6.70564 31.3563 6.67324 31.1293 6.67324C30.3187 6.67324 29.5405 6.90001 28.8595 7.32113C28.5028 7.54789 28.1461 7.80705 27.757 8.13099C27.3355 8.48733 26.7518 8.58451 26.233 8.42254L26.006 8.35775C25.552 8.22817 25.098 8.13099 24.6116 8.0662C23.7685 7.96902 22.893 8.19578 22.2445 8.71409C21.0771 9.62113 20.6556 11.0141 21.1096 12.3747C21.4014 13.3141 22.0175 14.1563 22.7957 14.7394C22.7957 14.7394 22.8282 14.7394 22.8282 14.7718C23.1849 15.0634 23.574 15.3873 23.9955 15.7437C24.3198 16.0352 24.6116 16.3916 24.9035 16.8127L24.9359 16.8451C25.1305 17.169 25.3574 17.493 25.6168 17.8817C25.8438 18.2056 26.0384 18.5296 26.233 18.8535L26.4275 19.1451C26.7842 19.7282 26.7518 20.4409 26.3302 20.9916C26.0384 21.4775 25.6493 21.931 25.2602 22.3845Z" fill="#3E6B83"/>
<path id="Vector_3" d="M33.6588 57.5648V55.2324C32.1347 55.038 31.0646 54.6817 30.1243 54.1958C29.1515 53.7099 28.3408 52.9 27.6274 51.7986C26.9141 50.6972 26.5249 49.3366 26.3952 47.7493L29.5082 47.1662C29.7352 48.8183 30.1567 50.0169 30.7728 50.7944C31.6483 51.8958 32.459 52.1226 33.6912 52.2521V42.8578C32.4265 42.631 31.3565 42.1127 30.027 41.4C29.0542 40.8493 28.276 40.1042 27.7571 39.1324C27.2383 38.1606 26.9465 37.0592 26.9465 35.8282C26.9465 33.6254 27.7247 31.8761 29.2812 30.5155C30.3188 29.6085 31.6483 28.8958 33.6912 28.7014V26.8873H36.2529V28.7014C38.0363 28.8634 38.9443 29.5437 39.9819 30.4183C41.3438 31.5197 42.1221 33.0747 42.4139 35.0183L39.2361 35.5042C39.0415 34.3056 38.6524 33.3662 38.1012 32.7183C37.8418 32.3944 37.2581 31.6493 36.2529 31.4549V40.331C37.8093 40.7197 38.2957 41.0113 38.8146 41.238C39.7874 41.6592 40.5656 42.1775 41.1493 42.793C41.7654 43.4085 42.2193 44.1211 42.5436 44.931C42.8679 45.7733 43.03 46.6479 43.03 47.6197C43.03 49.7578 42.349 51.5395 40.9871 52.9648C39.6252 54.3902 38.393 55.1676 36.2529 55.2648V57.6296H33.6588V57.5648ZM33.6588 31.3578C32.459 31.5521 31.7132 32.0056 31.0322 32.7831C30.3513 33.5606 29.9946 34.4676 29.9946 35.5366C29.9946 36.5733 30.2864 37.4479 30.8701 38.1606C31.4538 38.8733 32.232 39.424 33.6588 39.8451V31.3578ZM36.188 52.2521C37.3878 52.0902 37.8093 51.8958 38.62 51.0535C39.2685 50.3733 39.7874 49.0775 39.7874 47.7493C39.7874 46.6479 39.4955 45.7409 38.9443 45.0606C38.393 44.3803 37.8093 43.7648 36.1556 43.2465V52.2521H36.188ZM43.1273 21.4127H25.844C24.936 21.4127 24.2227 20.7 24.2227 19.793C24.2227 18.8859 24.936 18.1732 25.844 18.1732H43.1273C44.0352 18.1732 44.7486 18.8859 44.7486 19.793C44.7486 20.7 44.0352 21.4127 43.1273 21.4127Z" fill="white"/>
</g>
</svg>
