<svg width="72" height="72" viewBox="0 0 72 72" fill="none" xmlns="http://www.w3.org/2000/svg">
<g id="id-card-17 1">
<path id="Vector" d="M62.3508 14.5528H8.9872C6.52868 14.5528 4.52856 16.5509 4.52856 19.007V52.2606C4.52856 54.7167 6.52868 56.7148 8.9872 56.7148H62.3509C64.8094 56.7148 66.8095 54.7167 66.8095 52.2606V19.007C66.8095 16.5509 64.8093 14.5528 62.3508 14.5528ZM38.1835 25.231H54.513C55.7442 25.231 56.7423 26.2281 56.7423 27.4581C56.7423 28.6881 55.7442 29.6852 54.513 29.6852H38.1835C36.9523 29.6852 35.9542 28.6881 35.9542 27.4581C35.9542 26.2281 36.9523 25.231 38.1835 25.231ZM10.7733 47.2671C10.7733 40.5099 15.8649 35.0321 22.1456 35.0321C18.7637 35.0321 16.0221 32.2932 16.0221 28.9146C16.0221 25.536 18.7637 22.7971 22.1456 22.7971C25.5276 22.7971 28.2691 25.536 28.2691 28.9146C28.2691 32.2932 25.5276 35.0321 22.1456 35.0321C28.4264 35.0321 33.5179 40.5099 33.5179 47.2671H10.7733ZM54.513 46.2898H38.1835C36.9523 46.2898 35.9542 45.2927 35.9542 44.0627C35.9542 42.8327 36.9523 41.8356 38.1835 41.8356H54.513C55.7442 41.8356 56.7423 42.8327 56.7423 44.0627C56.7423 45.2927 55.7441 46.2898 54.513 46.2898ZM56.6953 37.9874H38.1835C36.9523 37.9874 35.9542 36.9903 35.9542 35.7603C35.9542 34.5303 36.9523 33.5332 38.1835 33.5332H56.6953C57.9265 33.5332 58.9246 34.5303 58.9246 35.7603C58.9246 36.9903 57.9265 37.9874 56.6953 37.9874Z" fill="#154B69"/>
</g>
</svg>
