<svg width="72" height="72" viewBox="0 0 72 72" fill="none" xmlns="http://www.w3.org/2000/svg">
<g id="linear-online-course 1">
<path id="Vector" d="M60.5259 55.8796H10.8121C8.3877 55.8796 6.40918 53.9031 6.40918 51.4811C6.40918 51.0496 6.76448 50.6946 7.19641 50.6946H64.1346C64.5665 50.6946 64.9218 51.0496 64.9218 51.4811C64.9288 53.9031 62.9503 55.8796 60.5259 55.8796Z" fill="#154B69"/>
<path id="Vector_2" d="M58.6171 50.6808H12.7209C11.4112 50.6808 10.3523 49.6229 10.3523 48.3144V17.3993C10.3523 16.0909 11.4112 15.033 12.7209 15.033H58.6171C59.9268 15.033 60.9857 16.0909 60.9857 17.3993V48.3144C60.9857 49.6229 59.9268 50.6808 58.6171 50.6808Z" fill="#154B69"/>
<path id="Vector_3" d="M60.9859 48.3005C60.9859 49.6089 59.934 50.6738 58.6312 50.6738H55.0991C56.4019 50.6738 57.4538 49.6089 57.4538 48.3005V17.4132C57.4538 16.1048 56.4019 15.04 55.1061 15.04H58.6312C59.934 15.04 60.9859 16.1048 60.9859 17.4132V48.3005Z" fill="#154B69"/>
<path id="Vector_4" d="M57.4538 46.3587C57.4538 46.6093 57.2517 46.8181 56.994 46.8181H14.3443C14.0935 46.8181 13.8845 46.6162 13.8845 46.3587V19.0279C13.8845 18.7773 14.0866 18.5685 14.3443 18.5685H56.994C57.2448 18.5685 57.4538 18.7704 57.4538 19.0279V46.3587Z" fill="white"/>
<path id="Vector_5" d="M56.9939 46.8111H53.9216V18.5685H56.9939C57.2447 18.5685 57.4537 18.7704 57.4537 19.0279V46.3587C57.4537 46.6093 57.2447 46.8111 56.9939 46.8111Z" fill="white"/>
<path id="Vector_6" d="M39.4101 52.8243H31.9279C31.1964 52.8243 30.6042 52.2327 30.6042 51.502V50.6946H40.7337V51.502C40.7337 52.2327 40.1416 52.8243 39.4101 52.8243Z" fill="white"/>
<path id="Vector_7" d="M64.9289 51.4811C64.9289 52.6921 64.4343 53.7917 63.6332 54.5851C62.832 55.3855 61.7313 55.8796 60.526 55.8796H57.0427C58.2549 55.8796 59.3556 55.3855 60.1498 54.5851C60.951 53.7848 61.4456 52.6851 61.4456 51.4811C61.4456 51.0496 61.0903 50.6946 60.6584 50.6946H64.1417C64.5736 50.6946 64.9289 51.0496 64.9289 51.4811Z" fill="#154B69"/>
<path id="Vector_8" d="M36.7698 21.1436C36.3936 20.9697 35.9686 20.8792 35.5297 20.8792C33.8647 20.8792 32.5132 22.2294 32.5132 23.8927C32.5132 25.5561 33.8647 26.9063 35.5297 26.9063C35.9686 26.9063 36.3936 26.8089 36.7698 26.6418C37.8148 26.1686 38.5463 25.1177 38.5463 23.8997C38.5463 22.6678 37.8148 21.61 36.7698 21.1436Z" fill="#154B69"/>
<path id="Vector_9" d="M38.5463 23.8858C38.5463 25.1037 37.8218 26.1547 36.7698 26.6279C36.3936 26.8019 35.9686 26.8924 35.5297 26.8924C35.272 26.8924 35.0212 26.8576 34.7773 26.795C34.9515 26.7532 35.1117 26.6906 35.272 26.621C36.317 26.1477 37.0485 25.0968 37.0485 23.8788C37.0485 22.6609 36.3239 21.61 35.272 21.1367C35.1187 21.0671 34.9515 21.0045 34.7773 20.9627C35.0142 20.9001 35.272 20.8653 35.5297 20.8653C35.9686 20.8653 36.3936 20.9627 36.7698 21.1297C37.8148 21.6169 38.5463 22.6678 38.5463 23.8858Z" fill="#154B69"/>
<path id="Vector_10" d="M39.1942 46.8111H32.144L29.8032 44.591C30.5069 41.9115 32.3112 40.6866 32.3112 40.6866H39.027C39.027 40.6866 40.8244 41.9115 41.535 44.591L39.1942 46.8111Z" fill="#154B69"/>
<path id="Vector_11" d="M40.6295 44.591C39.9258 41.9115 38.1284 40.6865 38.1284 40.6865H39.0271C39.0271 40.6865 40.8245 41.9115 41.5351 44.591H40.6295ZM34.2411 42.6909C33.9694 42.7536 33.6698 42.6631 33.4817 42.4126L32.0884 40.603L32.4715 40.6726L33.8091 42.4126C33.9276 42.5657 34.0808 42.6561 34.2411 42.6909ZM36.763 42.6909C36.6446 42.7188 36.5261 42.7118 36.4077 42.684C36.2753 42.6492 36.143 42.5726 36.0385 42.4613C36.0176 42.4404 35.9967 42.4126 35.9758 42.3847L35.4951 41.6957L35.6623 41.4591L35.8295 41.6957L36.1569 42.169L36.3102 42.3917C36.352 42.4543 36.4077 42.51 36.4634 42.5518C36.554 42.6213 36.6585 42.6701 36.763 42.6909Z" fill="#978CDB"/>
<path id="Vector_12" d="M32.1441 44.4448V46.8181H29.5247C29.5247 45.9899 29.6292 45.099 29.8033 44.4448H32.1441ZM41.8138 46.8111H39.1943V44.4379H41.5351C41.7023 45.099 41.8138 45.9829 41.8138 46.8111Z" fill="#FFECE3"/>
<path id="Vector_13" d="M31.2454 44.4448H32.1441V46.8181H31.2454V44.4448ZM41.8137 46.8111H40.915C40.915 45.9829 40.8105 45.0921 40.6364 44.4379H41.5351C41.7023 45.099 41.8137 45.9829 41.8137 46.8111Z" fill="#F7DBD0"/>
<path id="Vector_14" d="M35.8294 41.2364L35.0213 42.3917C34.7357 42.8093 34.1226 42.8232 33.8091 42.4195L32.4158 40.61L35.8294 41.2364Z" fill="white"/>
<path id="Vector_15" d="M35.5088 41.2364L36.3169 42.3917C36.6025 42.8093 37.2156 42.8232 37.5291 42.4195L38.9224 40.61L35.5088 41.2364Z" fill="white"/>
<path id="Vector_16" d="M35.5284 41.2294L35.5153 41.2414L35.5088 41.2294H35.5153H35.5284Z" fill="#EFEAEB"/>
<path id="Vector_17" d="M35.5297 41.2294L35.5158 41.2433L35.5088 41.2294H35.5158H35.5297ZM38.9155 40.61L37.5221 42.4195C37.334 42.6561 37.0414 42.7536 36.7767 42.6979C36.9439 42.6631 37.1041 42.5726 37.2226 42.4195L38.5671 40.6726L38.9155 40.61Z" fill="#EFEAEB"/>
<path id="Vector_18" d="M35.5284 41.2294L35.5153 41.2414L35.5088 41.2294H35.5153H35.5284Z" fill="#EFEAEB"/>
<path id="Vector_19" d="M35.5298 41.2294L35.5158 41.2433L35.5089 41.2294H35.5158H35.5298ZM35.6691 41.4591L35.5158 41.6749L35.0212 42.3917C34.8401 42.6562 34.5335 42.7536 34.2549 42.6979C34.436 42.6631 34.6032 42.5587 34.7216 42.3917L35.3695 41.4591L35.5228 41.2433L35.6691 41.4591Z" fill="#EFEAEB"/>
<path id="Vector_20" d="M25.4839 33.7477C25.4839 34.3587 25.7268 34.9447 26.1593 35.3767C26.5917 35.8087 27.1783 36.0514 27.7898 36.0514C28.4014 36.0514 28.9879 35.8087 29.4204 35.3767C29.8528 34.9447 30.0958 34.3587 30.0958 33.7477C30.0958 33.1368 29.8528 32.5508 29.4204 32.1188C28.9879 31.6868 28.4014 31.4441 27.7898 31.4441C27.1783 31.4441 26.5917 31.6868 26.1593 32.1188C25.7268 32.5508 25.4839 33.1368 25.4839 33.7477Z" fill="#F7DBD0"/>
<path id="Vector_21" d="M41.2424 33.7477C41.2424 34.3587 41.4854 34.9447 41.9178 35.3767C42.3503 35.8087 42.9368 36.0514 43.5484 36.0514C44.16 36.0514 44.7465 35.8087 45.1789 35.3767C45.6114 34.9447 45.8543 34.3587 45.8543 33.7477C45.8543 33.1368 45.6114 32.5508 45.1789 32.1188C44.7465 31.6868 44.16 31.4441 43.5484 31.4441C42.9368 31.4441 42.3503 31.6868 41.9178 32.1188C41.4854 32.5508 41.2424 33.1368 41.2424 33.7477Z" fill="#F7DBD0" fill-opacity="0.46"/>
<path id="Vector_22" d="M27.5808 33.4136C27.5808 34.4748 27.79 35.5255 28.1965 36.5058C28.603 37.4862 29.1987 38.3769 29.9498 39.1272C30.7009 39.8776 31.5925 40.4728 32.5738 40.8788C33.5551 41.2849 34.6069 41.4939 35.6691 41.4939C36.7312 41.4939 37.783 41.2849 38.7643 40.8788C39.7456 40.4728 40.6372 39.8776 41.3883 39.1272C42.1394 38.3769 42.7351 37.4862 43.1416 36.5058C43.5481 35.5255 43.7573 34.4748 43.7573 33.4136C43.7573 31.2706 42.9052 29.2154 41.3883 27.7001C39.8715 26.1847 37.8142 25.3334 35.6691 25.3334C33.5239 25.3334 31.4666 26.1847 29.9498 27.7001C28.433 29.2154 27.5808 31.2706 27.5808 33.4136Z" fill="#FFECE3" fill-opacity="0.46"/>
<path id="Vector_23" d="M43.7574 33.4136C43.7574 37.8748 40.1347 41.4939 35.6691 41.4939C35.4183 41.4939 35.1675 41.48 34.9167 41.4591C39.034 41.0833 42.2526 37.6243 42.2526 33.4136C42.2526 29.203 39.034 25.751 34.9167 25.3682C35.1606 25.3473 35.4183 25.3334 35.6691 25.3334C40.1347 25.3334 43.7574 28.9525 43.7574 33.4136Z" fill="#F7DBD0" fill-opacity="0.46"/>
<path id="Vector_24" d="M27.978 35.9749C28.3333 36.9631 28.8767 37.8679 29.5664 38.6404C28.8837 37.8609 28.3403 36.9631 27.978 35.9749ZM29.8102 38.9049C29.7545 38.8492 29.6988 38.7935 29.643 38.7309C29.6988 38.7866 29.7615 38.8423 29.8102 38.9049Z" fill="#FFD8D2"/>
<path id="Vector_25" d="M32.7919 35.4181C32.5829 35.4181 32.4087 35.2441 32.4087 35.0353V34.729C32.4087 34.5202 32.5829 34.3463 32.7919 34.3463C33.0009 34.3463 33.175 34.5202 33.175 34.729V35.0353C33.175 35.251 33.0078 35.4181 32.7919 35.4181ZM38.5463 35.4181C38.3373 35.4181 38.1631 35.2441 38.1631 35.0353V34.729C38.1631 34.5202 38.3373 34.3463 38.5463 34.3463C38.7553 34.3463 38.9294 34.5202 38.9294 34.729V35.0353C38.9225 35.251 38.7553 35.4181 38.5463 35.4181ZM35.6691 38.7587C35.1744 38.7587 34.7077 38.543 34.3872 38.1741C34.2479 38.014 34.2688 37.7774 34.422 37.6382C34.5823 37.499 34.8191 37.5199 34.9585 37.673C35.1396 37.8748 35.3974 38.0001 35.6691 38.0001C35.9408 38.0001 36.1985 37.8818 36.3797 37.68C36.519 37.5199 36.7559 37.506 36.9161 37.6452C37.0763 37.7844 37.0903 38.021 36.9509 38.1811C36.6305 38.5499 36.1637 38.7587 35.6691 38.7587Z" fill="#73859E"/>
<path id="Vector_26" d="M44.7258 31.8547C41.3121 31.8547 38.1702 30.7063 35.6483 28.7854C33.1403 30.6993 30.0053 31.8407 26.6125 31.8547C26.7867 28.4862 28.7931 25.6048 31.6633 24.192C32.8686 23.6004 34.234 23.2594 35.6692 23.2594C37.0973 23.2594 38.4419 23.5865 39.6471 24.1711C42.5313 25.5839 44.5586 28.4722 44.7258 31.8547Z" fill="#154B69"/>
<path id="Vector_27" d="M44.7257 31.8547C44.1126 31.8547 43.5065 31.8129 42.9144 31.7433C42.7054 28.4096 40.692 25.5631 37.8357 24.1711C36.8952 23.7118 35.8572 23.4125 34.7634 23.3012C35.063 23.2733 35.3556 23.2594 35.6621 23.2594C37.0903 23.2594 38.4348 23.5865 39.6401 24.1711C42.5312 25.5839 44.5585 28.4722 44.7257 31.8547Z" fill="#154B69"/>
<path id="Vector_28" d="M27.7132 31.5067C27.6018 31.4232 27.4555 31.4232 27.344 31.5067H27.351L29.1065 32.8778C29.1832 32.836 29.2598 32.8082 29.3434 32.7803L27.7132 31.5067ZM34.9794 35.084C34.8401 35.7869 34.22 36.3228 33.4746 36.3228H33.8369C34.5823 36.3228 35.2093 35.7939 35.3417 35.084H34.9794ZM33.8299 32.7107H33.4677C34.3176 32.7107 35.0073 33.3997 35.0073 34.2488V34.4855H35.3695V34.2488C35.3695 33.3997 34.6798 32.7107 33.8299 32.7107ZM44.0499 31.5554C43.9454 31.4232 43.7643 31.4023 43.632 31.4997C43.6529 31.5137 43.6738 31.5345 43.6877 31.5554C43.7922 31.6876 43.7643 31.8756 43.6389 31.973L41.9948 33.2536C42.2177 33.5181 42.3571 33.866 42.3571 34.2419V34.7778C42.3571 35.6269 41.6674 36.3159 40.8174 36.3159H41.1797C42.0296 36.3159 42.7193 35.6269 42.7193 34.7778V34.2419C42.7193 33.866 42.587 33.525 42.3571 33.2536L44.0012 31.973C44.1266 31.8756 44.1475 31.6876 44.0499 31.5554ZM29.8032 32.7107C29.643 32.7107 29.4967 32.7316 29.3504 32.7803L29.4758 32.8778C29.6848 32.7734 29.9147 32.7107 30.1655 32.7107H29.8032Z" fill="#73859E"/>
<path id="Vector_29" d="M30.4651 46.7555C30.2561 46.8738 29.9844 46.8042 29.866 46.5954L25.5397 39.1067C25.4213 38.8979 25.491 38.6265 25.7 38.5082C25.909 38.3899 26.1807 38.4595 26.2991 38.6682L30.6254 46.1569C30.7508 46.3657 30.6811 46.6302 30.4651 46.7555Z" fill="#154B69"/>
<path id="Vector_30" d="M64.1347 49.9987H61.1739C61.4944 49.5185 61.6825 48.9338 61.6825 48.3144V17.3993C61.6825 15.7081 60.3101 14.337 58.6172 14.337H12.7211C11.0282 14.337 9.65575 15.7081 9.65575 17.3993V48.3144C9.65575 48.9338 9.84385 49.5185 10.1643 49.9987H7.19654C6.38144 49.9987 5.71265 50.6668 5.71265 51.4811C5.71265 54.2928 7.9977 56.5756 10.8122 56.5756H60.526C61.8845 56.5756 63.1664 56.0467 64.1347 55.0793C65.0961 54.1119 65.6256 52.8382 65.6186 51.4811C65.6186 50.6668 64.9498 49.9987 64.1347 49.9987ZM31.301 51.3906H40.0372V51.502C40.0372 51.85 39.7585 52.1284 39.4102 52.1284H31.928C31.5797 52.1284 31.301 51.85 31.301 51.502V51.3906ZM11.0491 17.3993C11.0491 16.4806 11.8015 15.729 12.7211 15.729H58.6172C59.5368 15.729 60.2892 16.4806 60.2892 17.3993V48.3144C60.2892 49.2331 59.5368 49.9848 58.6172 49.9848H12.7211C11.8015 49.9848 11.0491 49.2331 11.0491 48.3144V17.3993ZM63.1455 54.091C62.4419 54.7939 61.5153 55.1837 60.526 55.1837H10.8122C8.77099 55.1837 7.10597 53.5203 7.10597 51.4811C7.10597 51.4324 7.14777 51.3906 7.19654 51.3906H29.9077V51.502C29.9077 52.6155 30.8134 53.5203 31.928 53.5203H39.4102C40.5249 53.5203 41.4305 52.6155 41.4305 51.502V51.3906H64.1347C64.1835 51.3906 64.2253 51.4324 64.2253 51.4811C64.2253 52.4694 63.8421 53.395 63.1455 54.091Z" fill="#154B69"/>
<path id="Vector_31" d="M14.3442 47.5141H56.9939C57.6348 47.5141 58.1503 46.9991 58.1503 46.3588V19.0279C58.1503 18.3876 57.6348 17.8726 56.9939 17.8726H14.3442C13.7033 17.8726 13.1877 18.3876 13.1877 19.0279V46.3588C13.1877 46.9991 13.7033 47.5141 14.3442 47.5141ZM14.5811 19.2645H56.757V46.1221H14.5811V19.2645Z" fill="#154B69"/>
</g>
</svg>
