<svg width="118" height="65" viewBox="0 0 118 65" fill="none" xmlns="http://www.w3.org/2000/svg">
<g id="lower dots ">
<g id="dots">
<circle id="Ellipse 13" cx="95.1471" cy="31.0035" r="4.5" transform="rotate(60 95.1471 31.0035)" fill="#275D8B"/>
<circle id="Ellipse 16" cx="87.1471" cy="17.1471" r="4.5" transform="rotate(60 87.1471 17.1471)" fill="#275D8B"/>
<circle id="Ellipse 14" cx="103.147" cy="44.8599" r="4.5" transform="rotate(60 103.147 44.8599)" fill="#275D8B"/>
<circle id="Ellipse 15" cx="111.147" cy="58.7163" r="4.5" transform="rotate(60 111.147 58.7163)" fill="#275D8B"/>
</g>
<g id="dots_2">
<circle id="Ellipse 13_2" cx="75.1471" cy="30.0035" r="4.5" transform="rotate(60 75.1471 30.0035)" fill="#275D8B"/>
<circle id="Ellipse 16_2" cx="67.1471" cy="16.1471" r="4.5" transform="rotate(60 67.1471 16.1471)" fill="#275D8B"/>
<circle id="Ellipse 14_2" cx="83.1471" cy="43.8599" r="4.5" transform="rotate(60 83.1471 43.8599)" fill="#275D8B"/>
<circle id="Ellipse 15_2" cx="91.1471" cy="57.7163" r="4.5" transform="rotate(60 91.1471 57.7163)" fill="#275D8B"/>
</g>
<g id="dots_3">
<circle id="Ellipse 13_3" cx="37.1471" cy="26.0035" r="4.5" transform="rotate(60 37.1471 26.0035)" fill="#F3C21E"/>
<circle id="Ellipse 16_3" cx="29.1471" cy="12.1471" r="4.5" transform="rotate(60 29.1471 12.1471)" fill="#F3C21E"/>
<circle id="Ellipse 14_3" cx="45.1471" cy="39.8599" r="4.5" transform="rotate(60 45.1471 39.8599)" fill="#F3C21E"/>
<circle id="Ellipse 15_3" cx="53.1471" cy="53.7163" r="4.5" transform="rotate(60 53.1471 53.7163)" fill="#F3C21E"/>
</g>
<g id="dots_4">
<circle id="Ellipse 13_4" cx="14.1471" cy="20.0035" r="4.5" transform="rotate(60 14.1471 20.0035)" fill="#EDB915"/>
<circle id="Ellipse 16_4" cx="6.14707" cy="6.14711" r="4.5" transform="rotate(60 6.14707 6.14711)" fill="#EDB915"/>
<circle id="Ellipse 14_4" cx="22.1471" cy="33.8599" r="4.5" transform="rotate(60 22.1471 33.8599)" fill="#EDB915"/>
<circle id="Ellipse 15_4" cx="30.1471" cy="47.7163" r="4.5" transform="rotate(60 30.1471 47.7163)" fill="#EDB915"/>
</g>
</g>
</svg>
