<svg width="68" height="55" viewBox="0 0 68 55" fill="none" xmlns="http://www.w3.org/2000/svg">
<rect width="68" height="55" fill="#F5F5F5"/>
<g id="Desktop - 2" clip-path="url(#clip0_0_1)">
<rect width="1598" height="5344" transform="translate(-119 -632)" fill="#F5F9FC"/>
<g id="button">
<rect id="Rectangle 2" x="-48" y="-14" width="628" height="119" rx="9" fill="url(#paint0_linear_0_1)"/>
<g id="school-31 1" clip-path="url(#clip1_0_1)">
<path id="Vector" d="M0 24.0625V53.2813C0 54.2309 0.76075 55 1.7 55H10.2V20.625H3.4C1.52256 20.625 0 22.1644 0 24.0625ZM38.25 18.9063H35.7V14.6094C35.7 14.1346 35.3196 13.75 34.85 13.75H33.15C32.6804 13.75 32.3 14.1346 32.3 14.6094V21.4844C32.3 21.9592 32.6804 22.3438 33.15 22.3438H38.25C38.7196 22.3438 39.1 21.9592 39.1 21.4844V19.7656C39.1 19.2908 38.7196 18.9063 38.25 18.9063ZM52.8859 12.0356L35.8859 0.576865C35.3273 0.200707 34.6712 0 34 0C33.3288 0 32.6727 0.200707 32.1141 0.576865L15.1141 12.0356C14.6484 12.3494 14.2666 12.7746 14.0025 13.2735C13.7384 13.7723 13.6001 14.3293 13.6 14.8951V55H27.2V39.5313C27.2 38.5816 27.9608 37.8125 28.9 37.8125H39.1C40.0392 37.8125 40.8 38.5816 40.8 39.5313V55H54.4V14.8962C54.4 13.7468 53.8316 12.6726 52.8859 12.0356ZM34 27.5C29.3059 27.5 25.5 23.6522 25.5 18.9063C25.5 14.1604 29.3059 10.3125 34 10.3125C38.6941 10.3125 42.5 14.1604 42.5 18.9063C42.5 23.6522 38.6941 27.5 34 27.5ZM64.6 20.625H57.8V55H66.3C67.2393 55 68 54.2309 68 53.2813V24.0625C68 22.1644 66.4774 20.625 64.6 20.625Z" fill="#265C89"/>
</g>
</g>
</g>
<defs>
<linearGradient id="paint0_linear_0_1" x1="-111.212" y1="64.9727" x2="673.188" y2="-30.4997" gradientUnits="userSpaceOnUse">
<stop stop-color="#FFB836"/>
<stop offset="0.981818" stop-color="#FFB836" stop-opacity="0"/>
</linearGradient>
<clipPath id="clip0_0_1">
<rect width="1598" height="5344" fill="white" transform="translate(-119 -632)"/>
</clipPath>
<clipPath id="clip1_0_1">
<rect width="68" height="55" fill="white"/>
</clipPath>
</defs>
</svg>
