<svg width="80" height="85" viewBox="0 0 80 85" fill="none" xmlns="http://www.w3.org/2000/svg">
<g id="Vector">
<mask id="path-1-inside-1_82_659" fill="white">
<path d="M76.4207 13.5301C74.3595 11.6085 71.4093 9.3308 68.1158 7.1155C64.8202 4.89879 61.5641 3.00342 58.946 1.77612C55.6108 0.213152 53.9386 -0.0361839 53.1716 0.91743C53.1623 0.930886 53.155 0.944065 53.1457 0.957522C53.0902 1.02451 53.0413 1.09741 53.0067 1.17846C50.031 8.4208 42.9454 19.6253 33.9883 31.2687L31.3364 29.485C31.1404 29.3534 30.8937 29.3001 30.6506 29.337C30.4075 29.3739 30.1878 29.4979 30.0397 29.6817L23.4231 37.9071C23.2753 38.0911 23.2113 38.3199 23.2452 38.5431C23.2791 38.7663 23.4081 38.9657 23.6038 39.0976L26.2558 40.8814C16.9822 51.9114 7.56008 61.3083 0.903214 66.1547C0.688661 66.2493 0.510356 66.3849 0.365144 66.5654C0.362244 66.571 0.359342 66.5766 0.356186 66.5805C0.353029 66.5845 0.349873 66.5884 0.34855 66.592C0.340402 66.6002 0.331999 66.6066 0.325685 66.6145C0.309645 66.6324 0.299619 66.6529 0.285669 66.6722C0.276455 66.6857 0.265406 66.6994 0.258281 66.7143C-0.382054 67.6624 0.406363 69.0364 2.94147 71.3978C5.00448 73.3191 7.95286 75.5971 11.2466 77.8141C14.5419 80.0291 17.7981 81.9245 20.4162 83.1518C22.7352 84.2384 24.2506 84.6907 25.2171 84.5441C25.639 84.4801 25.957 84.3009 26.1888 84.0108C26.1953 84.0046 26.198 83.9973 26.2027 83.9914C26.209 83.9836 26.2172 83.9754 26.2235 83.9676L26.2282 83.9617C26.2395 83.9497 26.2466 83.9348 26.2559 83.9213C26.2701 83.9037 26.2824 83.8863 26.2943 83.8655C26.3788 83.7425 26.4395 83.6109 26.4728 83.4715C29.0073 77.4262 34.4109 68.5528 41.3428 59.0426C41.7503 59.0566 42.1589 59.0291 42.5471 59.0029C43.078 58.9654 43.6275 58.9268 43.9634 59.0258C44.3288 59.134 44.7602 59.4665 45.1788 59.7888C45.2916 59.8768 45.4062 59.9645 45.5248 60.0533L46.0408 68.7281C46.0405 68.7385 46.0439 68.7483 46.0454 68.7584C46.0482 68.789 46.0549 68.8207 46.0613 68.8507C46.067 68.8757 46.0724 68.899 46.0799 68.9237C46.0879 68.9518 46.1012 68.9773 46.1129 69.0048C46.1243 69.0307 46.1352 69.0531 46.1482 69.077C46.1612 69.1009 46.1779 69.1242 46.1964 69.1472C46.2131 69.1705 46.2298 69.1938 46.2498 69.2149C46.2569 69.2242 46.2621 69.2337 46.2707 69.241C46.2931 69.2652 46.3187 69.2854 46.3425 69.3059L46.3487 69.3102C46.3895 69.3436 46.4352 69.3728 46.4801 69.397C46.4882 69.401 46.4945 69.4052 46.5026 69.4091C46.6001 69.4581 46.7045 69.4905 46.8136 69.5049C46.8212 69.5055 46.8309 69.5075 46.8385 69.508C46.8956 69.5132 46.9521 69.5149 47.0079 69.5116L47.0152 69.5105C47.032 69.5097 47.0485 69.5072 47.065 69.5047C47.0744 69.505 47.0836 69.5036 47.0928 69.5022C47.146 69.4941 47.1984 69.481 47.2503 69.4645C47.2629 69.4609 47.2752 69.4556 47.2875 69.4502C47.325 69.4377 47.362 69.4217 47.3967 69.4027C47.4106 69.3954 47.4229 69.3901 47.4365 69.3811C47.4712 69.3621 47.5035 69.34 47.5355 69.3162C47.5457 69.3094 47.556 69.3027 47.566 69.2943C47.5691 69.2904 47.5746 69.2895 47.5778 69.2856L52.1257 65.4775L57.0822 68.5861C57.0926 68.5932 57.1044 68.5965 57.1146 68.6019C57.1394 68.6171 57.1655 68.6286 57.1919 68.6418C57.2181 68.6534 57.2442 68.6649 57.2719 68.6745C57.2997 68.6841 57.3269 68.6903 57.3543 68.6982C57.3836 68.7058 57.4127 68.7117 57.4433 68.7157C57.4703 68.7202 57.497 68.723 57.5255 68.7256C57.5577 68.7276 57.5897 68.7279 57.6232 68.7263C57.6381 68.7257 57.6517 68.7288 57.6685 68.728C57.6944 68.7258 57.7203 68.7236 57.746 68.7197C57.8084 68.7102 57.866 68.6946 57.9229 68.6739C57.9266 68.6734 57.9282 68.6714 57.9319 68.6708C57.9853 68.6524 58.0381 68.6289 58.0864 68.6009C58.0984 68.5939 58.11 68.5835 58.1239 68.5762C58.1614 68.5516 58.1971 68.5272 58.2305 68.4998C58.2455 68.4872 58.2565 68.4734 58.2715 68.4608C58.3009 68.4322 58.3301 68.402 58.3569 68.3686C58.3617 68.3627 58.3685 68.3582 58.373 68.3507C58.3811 68.3426 58.3833 68.3319 58.3911 68.3221C58.4127 68.2912 58.4322 68.259 58.4496 68.2254C58.4583 68.2085 58.4668 68.19 58.4752 68.1715C58.489 68.1384 58.499 68.1059 58.5091 68.0733C58.5152 68.0517 58.5216 68.0318 58.5258 68.0105C58.5307 67.9805 58.535 67.9471 58.5377 67.9157C58.5396 67.8913 58.54 67.8688 58.5403 67.8464C58.5404 67.8343 58.5422 67.822 58.5423 67.8099L57.7824 55.0084C57.8278 54.924 57.8778 54.8458 57.9296 54.7793C57.9833 54.7126 58.0503 54.6473 58.1268 54.5823L71.7155 51.4336C71.7281 51.43 71.7404 51.4247 71.7549 51.4208C71.7871 51.4107 71.8194 51.4007 71.8514 51.3889L71.9253 51.357C71.9531 51.3425 71.9791 51.3282 72.0048 51.3122C72.0305 51.2963 72.0547 51.2823 72.0765 51.2652C72.1001 51.2478 72.1198 51.2293 72.1416 51.2122C72.1647 51.1915 72.1876 51.1691 72.2086 51.1469C72.2149 51.1391 72.2234 51.1327 72.2297 51.1248C72.241 51.1128 72.2465 51.0999 72.256 51.0881C72.2765 51.0626 72.2968 51.0354 72.3131 51.0071C72.3265 50.9843 72.3382 50.9619 72.3495 50.9378C72.3643 50.9114 72.3751 50.884 72.3857 50.8548C72.3952 50.831 72.4026 50.8057 72.4082 50.7807C72.4151 50.7521 72.422 50.7235 72.425 50.6938C72.4285 50.6674 72.4305 50.643 72.4321 50.6169C72.4333 50.5874 72.4326 50.5583 72.4319 50.5291C72.4297 50.5019 72.4256 50.4749 72.4194 50.4466C72.4168 50.4297 72.4182 50.414 72.4138 50.3975C72.4102 50.3859 72.405 50.3764 72.4014 50.3649C72.3936 50.3385 72.384 50.3124 72.3726 50.2866C72.3545 50.2348 72.3281 50.186 72.2943 50.1417C72.2774 50.1167 72.2604 50.0917 72.2419 50.0687C72.2244 50.0494 72.206 50.0309 72.1866 50.0133C72.1644 49.9908 72.1404 49.9686 72.1151 49.9501C72.1065 49.9428 72.0997 49.9352 72.0913 49.9296L67.3698 46.5269L69.9909 41.4228C69.997 41.4133 69.9973 41.4029 70.0033 41.3934C70.0158 41.3639 70.0263 41.3348 70.0369 41.3056C70.0443 41.2804 70.0539 41.2565 70.0592 41.2299C70.0664 41.2029 70.0696 41.1749 70.0729 41.1468C70.0761 41.1188 70.0793 41.0907 70.0789 41.0632C70.0806 41.0371 70.0786 41.0116 70.0745 40.9846C70.0717 40.9541 70.0692 40.9252 70.0628 40.8951C70.0613 40.885 70.0616 40.8746 70.06 40.8645C70.0556 40.848 70.0481 40.8353 70.0439 40.8205C70.0338 40.791 70.024 40.7632 70.0123 40.7357C70.0009 40.7099 69.9881 40.6877 69.9751 40.6638C69.9619 40.6383 69.947 40.6147 69.9285 40.5916C69.9139 40.5697 69.8957 40.5484 69.8774 40.527C69.8592 40.5057 69.8391 40.4846 69.8172 40.4638C69.7976 40.4461 69.7762 40.4287 69.7529 40.4115C69.7297 40.3944 69.7064 40.3772 69.6798 40.3623C69.6547 40.3455 69.6283 40.3323 69.6019 40.319C69.5857 40.3112 69.5729 40.301 69.5551 40.2951C69.5449 40.2898 69.5334 40.2881 69.5235 40.2844C69.4937 40.2734 69.4641 40.2641 69.433 40.2568C69.4055 40.2489 69.3762 40.2413 69.3474 40.2371C69.3184 40.2311 69.2898 40.2286 69.2613 40.226C69.2291 40.224 69.1987 40.2217 69.1668 40.2214C69.1388 40.2222 69.1128 40.2244 69.0851 40.2269C69.05 40.2305 69.017 40.2355 68.9842 40.2422C68.9732 40.2439 68.9619 40.2439 68.9509 40.2455L59.7414 42.3801C59.6134 42.303 59.4877 42.2291 59.3641 42.1565C58.9029 41.8871 58.4254 41.6099 58.2037 41.3231C58.0004 41.0593 57.877 40.5681 57.758 40.0935C57.6695 39.7452 57.5779 39.3766 57.4398 39.0237C65.4642 29.9491 73.252 22.4797 78.853 18.4894C78.8664 18.4788 78.8777 18.4667 78.8911 18.4561C78.9045 18.4454 78.9177 18.4331 78.931 18.4225C78.9639 18.3916 78.9949 18.3611 79.0236 18.3275C79.0267 18.3235 79.0317 18.3193 79.0365 18.3134C79.0443 18.3036 79.0501 18.2924 79.058 18.2826C79.0767 18.2574 79.0938 18.2341 79.1086 18.2078C79.7411 17.2573 78.9495 15.8873 76.4207 13.5301ZM60.4371 48.037C60.4444 47.6896 60.6654 47.2047 60.8774 46.735C61.247 45.9192 61.6657 44.9943 61.3572 44.0626C61.3235 43.9644 61.2833 43.8723 61.2378 43.7827L67.4946 42.3322L65.3833 46.4441C65.3749 46.4626 65.3701 46.4806 65.3635 46.4988C65.3495 46.5302 65.3355 46.5617 65.3257 46.5959C65.3182 46.6211 65.3145 46.6458 65.3107 46.6705C65.3059 46.7005 65.299 46.7291 65.2978 46.7586C65.2946 46.7866 65.2969 46.8139 65.2973 46.8414C65.2995 46.8686 65.2979 46.8947 65.302 46.9216C65.306 46.9486 65.3138 46.9749 65.3197 47.0016C65.3275 47.028 65.3316 47.0549 65.3412 47.081C65.3505 47.1055 65.3635 47.1293 65.3747 47.1535C65.3861 47.1793 65.3975 47.2051 65.4145 47.2301C65.4275 47.254 65.4476 47.2751 65.4642 47.2984C65.4807 47.32 65.4971 47.3416 65.5153 47.363C65.5375 47.3855 65.5633 47.4074 65.5889 47.4276C65.6062 47.4422 65.6197 47.4574 65.6367 47.4703L69.4397 50.2113L61.1435 52.1332C61.1633 52.0905 61.1813 52.0482 61.199 52.0042C61.5505 51.0568 61.1642 50.1317 60.8223 49.3136C60.6305 48.8535 60.4306 48.3773 60.4371 48.037ZM25.4595 38.208L30.9602 31.3698L40.2702 37.632C40.1902 37.6734 40.1106 37.7182 40.0358 37.7692C39.1837 38.336 38.9042 39.288 38.6545 40.127C38.5073 40.6282 38.3535 41.1477 38.1102 41.4482C37.869 41.7501 37.3722 42.0373 36.893 42.3167C36.0913 42.7829 35.1809 43.3121 34.8429 44.2247C34.8122 44.3069 34.7889 44.388 34.7695 44.4701L28.1407 40.0114L28.1405 40.0097L28.1365 40.0086L25.4595 38.208ZM12.3641 76.4249C6.01562 72.1562 2.81234 68.978 2.07053 67.7503C3.57287 68.0306 7.84472 69.8804 14.1916 74.151C20.5464 78.4239 23.7499 81.6038 24.4857 82.829C22.8609 82.5328 18.2262 80.3694 12.3641 76.4249ZM25.5147 81.1534C25.0509 80.5829 24.4209 79.9309 23.6124 79.1784C21.5513 77.2568 18.6029 74.9788 15.3076 72.7638C12.0138 70.5468 8.75764 68.6514 6.13955 67.4241C5.1195 66.9466 4.25507 66.592 3.52506 66.3565C10.2236 61.154 18.9041 52.3846 27.7332 41.8752L35.2146 46.9074C35.217 46.9105 35.2175 46.9139 35.2175 46.9139C35.4093 47.374 35.6095 47.8518 35.6027 48.1905C35.5954 48.5379 35.3766 49.0242 35.1643 49.4922C34.795 50.3097 34.3744 51.2348 34.6844 52.1646C34.9898 53.0881 35.8871 53.6101 36.6776 54.0707C37.1388 54.3401 37.6144 54.6176 37.8364 54.9061C38.0395 55.1681 38.1647 55.6591 38.2836 56.1337C38.4927 56.9668 38.731 57.9057 39.5359 58.4985C33.1995 67.2223 28.2957 75.1499 25.5147 81.1534ZM56.5884 66.1873L52.5945 63.6837C52.5777 63.6725 52.5579 63.6652 52.5396 63.6559C52.509 63.6398 52.4782 63.6221 52.4463 63.6097C52.4201 63.5982 52.3929 63.592 52.3673 63.5838C52.3361 63.5765 52.3063 63.5655 52.2754 63.5598C52.2464 63.5539 52.2179 63.5514 52.1893 63.5488C52.159 63.5465 52.1302 63.5423 52.1001 63.5417C52.0718 63.5408 52.0422 63.5436 52.0144 63.5461C51.9827 63.5474 51.9531 63.5502 51.9219 63.5549C51.8944 63.5591 51.8674 63.5666 51.8404 63.5742C51.8095 63.5806 51.7788 63.5887 51.7484 63.5985C51.7201 63.6097 51.6939 63.6223 51.6676 63.6348C51.6414 63.6474 51.6131 63.6586 51.5871 63.6729C51.5577 63.6894 51.5291 63.711 51.5023 63.7323C51.4834 63.7438 51.4642 63.7536 51.4477 63.7681L47.7855 66.8354L47.4347 60.9419C47.5418 60.9549 47.6499 60.9626 47.7625 60.9628C47.8898 60.9607 48.0179 60.9516 48.1444 60.9324C49.034 60.7975 49.7653 60.2386 50.4095 59.7481C50.8365 59.4215 51.2771 59.0859 51.6376 58.976C51.6968 58.9584 51.7639 58.9431 51.8373 58.932C52.1821 58.8797 52.6214 58.906 53.0869 58.9319C53.6396 58.9634 54.2132 58.997 54.7763 58.9116C55.2568 58.8387 55.6583 58.6899 56.0061 58.4597C56.0468 58.4311 56.0856 58.4028 56.1261 58.3726L56.5884 66.1873ZM58.3456 43.6048C58.8996 43.929 59.4737 44.2623 59.585 44.6002C59.6992 44.9447 59.431 45.5384 59.171 46.1119C58.8898 46.7316 58.6007 47.3733 58.5872 48.0506C58.5725 48.7195 58.8373 49.3512 59.0932 49.9618C59.3326 50.5371 59.5805 51.1317 59.4487 51.4876C59.3271 51.811 58.7498 52.1484 58.1892 52.4729C57.8565 52.6663 57.4998 52.8755 57.1692 53.1203C57.1572 53.1273 57.1474 53.1374 57.1356 53.1461C56.8828 53.3343 56.6481 53.5439 56.4522 53.7855C56.252 54.0364 56.102 54.309 55.9778 54.5914C55.9765 54.595 55.9752 54.5986 55.9736 54.6006C55.8194 54.9565 55.7086 55.3265 55.6009 55.6925C55.427 56.277 55.247 56.8832 54.9456 57.0857C54.8432 57.1529 54.7058 57.1996 54.5206 57.2277C54.1648 57.2817 53.72 57.2561 53.2469 57.2297C52.6997 57.1973 52.1336 57.1643 51.5816 57.2481C51.4128 57.2737 51.2514 57.3102 51.1007 57.3555C50.3976 57.569 49.8141 58.0141 49.2508 58.4441C48.7295 58.8419 48.188 59.2548 47.796 59.2557C47.4098 59.2574 46.8912 58.8572 46.3877 58.4702C45.8391 58.0452 45.2696 57.6062 44.5683 57.3991C43.8926 57.2001 43.161 57.2508 42.4538 57.3012C41.7741 57.3475 41.0723 57.3971 40.7359 57.1708C40.3994 56.9445 40.2402 56.3158 40.0879 55.7084C39.9281 55.0763 39.765 54.4223 39.3543 53.892C38.9292 53.3415 38.3015 52.9767 37.6961 52.6224C37.1403 52.2984 36.568 51.9649 36.4569 51.6286C36.3406 51.2828 36.6109 50.6905 36.8709 50.117C37.15 49.4959 37.4412 48.8556 37.4544 48.1766C37.4674 47.508 37.2026 46.8763 36.9484 46.2654C36.7075 45.6921 36.4596 45.0975 36.5932 44.7413C36.7127 44.4165 37.2922 44.0805 37.8524 43.7543C38.4817 43.3884 39.1315 43.009 39.5877 42.4419C40.0457 41.8746 40.2464 41.1947 40.441 40.5364C40.6147 39.9501 40.7929 39.3443 41.0961 39.1415C41.1966 39.0746 41.3361 39.0293 41.5195 39.0015C41.8753 38.9475 42.322 38.9728 42.7932 38.9995C43.3402 39.0302 43.9062 39.0632 44.4582 38.9794C44.627 38.9538 44.7903 38.917 44.941 38.8717C45.6441 38.6582 46.2276 38.2131 46.7909 37.7831C47.3124 37.387 47.8539 36.9741 48.2456 36.9715C48.6301 36.97 49.1505 37.37 49.6524 37.759C50.2026 38.182 50.7703 38.6213 51.4734 38.8281C52.1472 39.0274 52.8788 38.9767 53.5863 38.9279C54.2658 38.8799 54.9693 38.8301 55.3058 39.0564C55.6422 39.2827 55.8015 39.9114 55.9538 40.5188C56.1117 41.1512 56.2766 41.8049 56.6856 42.3355C57.1106 42.886 57.7383 43.2507 58.3456 43.6048ZM56.3284 37.6109C55.4704 37.0882 54.4232 37.1609 53.4928 37.2246C52.9618 37.2621 52.4123 37.3006 52.0783 37.2014C51.711 37.0935 51.2796 36.761 50.861 36.4386C50.1447 35.8858 49.3326 35.2579 48.2776 35.2664C48.1519 35.2665 48.024 35.2773 47.8975 35.2965C47.0079 35.4314 46.2763 35.9886 45.6322 36.4791C45.2052 36.8057 44.7646 37.1413 44.4023 37.2514C44.343 37.269 44.2759 37.2844 44.2025 37.2955C43.8577 37.3478 43.4184 37.3214 42.9548 37.2953C42.9548 37.2953 42.9511 37.2959 42.9472 37.2947L35.4658 32.2625C44.395 20.6578 51.4973 9.45246 54.6032 2.06633C55.792 2.13575 60.206 3.93299 66.9999 8.50275C73.7645 13.0528 76.9576 16.3618 77.405 17.393C71.7223 21.5128 64.2804 28.6523 56.3284 37.6109Z"/>
</mask>
<path d="M76.4207 13.5301C74.3595 11.6085 71.4093 9.3308 68.1158 7.1155C64.8202 4.89879 61.5641 3.00342 58.946 1.77612C55.6108 0.213152 53.9386 -0.0361839 53.1716 0.91743C53.1623 0.930886 53.155 0.944065 53.1457 0.957522C53.0902 1.02451 53.0413 1.09741 53.0067 1.17846C50.031 8.4208 42.9454 19.6253 33.9883 31.2687L31.3364 29.485C31.1404 29.3534 30.8937 29.3001 30.6506 29.337C30.4075 29.3739 30.1878 29.4979 30.0397 29.6817L23.4231 37.9071C23.2753 38.0911 23.2113 38.3199 23.2452 38.5431C23.2791 38.7663 23.4081 38.9657 23.6038 39.0976L26.2558 40.8814C16.9822 51.9114 7.56008 61.3083 0.903214 66.1547C0.688661 66.2493 0.510356 66.3849 0.365144 66.5654C0.362244 66.571 0.359342 66.5766 0.356186 66.5805C0.353029 66.5845 0.349873 66.5884 0.34855 66.592C0.340402 66.6002 0.331999 66.6066 0.325685 66.6145C0.309645 66.6324 0.299619 66.6529 0.285669 66.6722C0.276455 66.6857 0.265406 66.6994 0.258281 66.7143C-0.382054 67.6624 0.406363 69.0364 2.94147 71.3978C5.00448 73.3191 7.95286 75.5971 11.2466 77.8141C14.5419 80.0291 17.7981 81.9245 20.4162 83.1518C22.7352 84.2384 24.2506 84.6907 25.2171 84.5441C25.639 84.4801 25.957 84.3009 26.1888 84.0108C26.1953 84.0046 26.198 83.9973 26.2027 83.9914C26.209 83.9836 26.2172 83.9754 26.2235 83.9676L26.2282 83.9617C26.2395 83.9497 26.2466 83.9348 26.2559 83.9213C26.2701 83.9037 26.2824 83.8863 26.2943 83.8655C26.3788 83.7425 26.4395 83.6109 26.4728 83.4715C29.0073 77.4262 34.4109 68.5528 41.3428 59.0426C41.7503 59.0566 42.1589 59.0291 42.5471 59.0029C43.078 58.9654 43.6275 58.9268 43.9634 59.0258C44.3288 59.134 44.7602 59.4665 45.1788 59.7888C45.2916 59.8768 45.4062 59.9645 45.5248 60.0533L46.0408 68.7281C46.0405 68.7385 46.0439 68.7483 46.0454 68.7584C46.0482 68.789 46.0549 68.8207 46.0613 68.8507C46.067 68.8757 46.0724 68.899 46.0799 68.9237C46.0879 68.9518 46.1012 68.9773 46.1129 69.0048C46.1243 69.0307 46.1352 69.0531 46.1482 69.077C46.1612 69.1009 46.1779 69.1242 46.1964 69.1472C46.2131 69.1705 46.2298 69.1938 46.2498 69.2149C46.2569 69.2242 46.2621 69.2337 46.2707 69.241C46.2931 69.2652 46.3187 69.2854 46.3425 69.3059L46.3487 69.3102C46.3895 69.3436 46.4352 69.3728 46.4801 69.397C46.4882 69.401 46.4945 69.4052 46.5026 69.4091C46.6001 69.4581 46.7045 69.4905 46.8136 69.5049C46.8212 69.5055 46.8309 69.5075 46.8385 69.508C46.8956 69.5132 46.9521 69.5149 47.0079 69.5116L47.0152 69.5105C47.032 69.5097 47.0485 69.5072 47.065 69.5047C47.0744 69.505 47.0836 69.5036 47.0928 69.5022C47.146 69.4941 47.1984 69.481 47.2503 69.4645C47.2629 69.4609 47.2752 69.4556 47.2875 69.4502C47.325 69.4377 47.362 69.4217 47.3967 69.4027C47.4106 69.3954 47.4229 69.3901 47.4365 69.3811C47.4712 69.3621 47.5035 69.34 47.5355 69.3162C47.5457 69.3094 47.556 69.3027 47.566 69.2943C47.5691 69.2904 47.5746 69.2895 47.5778 69.2856L52.1257 65.4775L57.0822 68.5861C57.0926 68.5932 57.1044 68.5965 57.1146 68.6019C57.1394 68.6171 57.1655 68.6286 57.1919 68.6418C57.2181 68.6534 57.2442 68.6649 57.2719 68.6745C57.2997 68.6841 57.3269 68.6903 57.3543 68.6982C57.3836 68.7058 57.4127 68.7117 57.4433 68.7157C57.4703 68.7202 57.497 68.723 57.5255 68.7256C57.5577 68.7276 57.5897 68.7279 57.6232 68.7263C57.6381 68.7257 57.6517 68.7288 57.6685 68.728C57.6944 68.7258 57.7203 68.7236 57.746 68.7197C57.8084 68.7102 57.866 68.6946 57.9229 68.6739C57.9266 68.6734 57.9282 68.6714 57.9319 68.6708C57.9853 68.6524 58.0381 68.6289 58.0864 68.6009C58.0984 68.5939 58.11 68.5835 58.1239 68.5762C58.1614 68.5516 58.1971 68.5272 58.2305 68.4998C58.2455 68.4872 58.2565 68.4734 58.2715 68.4608C58.3009 68.4322 58.3301 68.402 58.3569 68.3686C58.3617 68.3627 58.3685 68.3582 58.373 68.3507C58.3811 68.3426 58.3833 68.3319 58.3911 68.3221C58.4127 68.2912 58.4322 68.259 58.4496 68.2254C58.4583 68.2085 58.4668 68.19 58.4752 68.1715C58.489 68.1384 58.499 68.1059 58.5091 68.0733C58.5152 68.0517 58.5216 68.0318 58.5258 68.0105C58.5307 67.9805 58.535 67.9471 58.5377 67.9157C58.5396 67.8913 58.54 67.8688 58.5403 67.8464C58.5404 67.8343 58.5422 67.822 58.5423 67.8099L57.7824 55.0084C57.8278 54.924 57.8778 54.8458 57.9296 54.7793C57.9833 54.7126 58.0503 54.6473 58.1268 54.5823L71.7155 51.4336C71.7281 51.43 71.7404 51.4247 71.7549 51.4208C71.7871 51.4107 71.8194 51.4007 71.8514 51.3889L71.9253 51.357C71.9531 51.3425 71.9791 51.3282 72.0048 51.3122C72.0305 51.2963 72.0547 51.2823 72.0765 51.2652C72.1001 51.2478 72.1198 51.2293 72.1416 51.2122C72.1647 51.1915 72.1876 51.1691 72.2086 51.1469C72.2149 51.1391 72.2234 51.1327 72.2297 51.1248C72.241 51.1128 72.2465 51.0999 72.256 51.0881C72.2765 51.0626 72.2968 51.0354 72.3131 51.0071C72.3265 50.9843 72.3382 50.9619 72.3495 50.9378C72.3643 50.9114 72.3751 50.884 72.3857 50.8548C72.3952 50.831 72.4026 50.8057 72.4082 50.7807C72.4151 50.7521 72.422 50.7235 72.425 50.6938C72.4285 50.6674 72.4305 50.643 72.4321 50.6169C72.4333 50.5874 72.4326 50.5583 72.4319 50.5291C72.4297 50.5019 72.4256 50.4749 72.4194 50.4466C72.4168 50.4297 72.4182 50.414 72.4138 50.3975C72.4102 50.3859 72.405 50.3764 72.4014 50.3649C72.3936 50.3385 72.384 50.3124 72.3726 50.2866C72.3545 50.2348 72.3281 50.186 72.2943 50.1417C72.2774 50.1167 72.2604 50.0917 72.2419 50.0687C72.2244 50.0494 72.206 50.0309 72.1866 50.0133C72.1644 49.9908 72.1404 49.9686 72.1151 49.9501C72.1065 49.9428 72.0997 49.9352 72.0913 49.9296L67.3698 46.5269L69.9909 41.4228C69.997 41.4133 69.9973 41.4029 70.0033 41.3934C70.0158 41.3639 70.0263 41.3348 70.0369 41.3056C70.0443 41.2804 70.0539 41.2565 70.0592 41.2299C70.0664 41.2029 70.0696 41.1749 70.0729 41.1468C70.0761 41.1188 70.0793 41.0907 70.0789 41.0632C70.0806 41.0371 70.0786 41.0116 70.0745 40.9846C70.0717 40.9541 70.0692 40.9252 70.0628 40.8951C70.0613 40.885 70.0616 40.8746 70.06 40.8645C70.0556 40.848 70.0481 40.8353 70.0439 40.8205C70.0338 40.791 70.024 40.7632 70.0123 40.7357C70.0009 40.7099 69.9881 40.6877 69.9751 40.6638C69.9619 40.6383 69.947 40.6147 69.9285 40.5916C69.9139 40.5697 69.8957 40.5484 69.8774 40.527C69.8592 40.5057 69.8391 40.4846 69.8172 40.4638C69.7976 40.4461 69.7762 40.4287 69.7529 40.4115C69.7297 40.3944 69.7064 40.3772 69.6798 40.3623C69.6547 40.3455 69.6283 40.3323 69.6019 40.319C69.5857 40.3112 69.5729 40.301 69.5551 40.2951C69.5449 40.2898 69.5334 40.2881 69.5235 40.2844C69.4937 40.2734 69.4641 40.2641 69.433 40.2568C69.4055 40.2489 69.3762 40.2413 69.3474 40.2371C69.3184 40.2311 69.2898 40.2286 69.2613 40.226C69.2291 40.224 69.1987 40.2217 69.1668 40.2214C69.1388 40.2222 69.1128 40.2244 69.0851 40.2269C69.05 40.2305 69.017 40.2355 68.9842 40.2422C68.9732 40.2439 68.9619 40.2439 68.9509 40.2455L59.7414 42.3801C59.6134 42.303 59.4877 42.2291 59.3641 42.1565C58.9029 41.8871 58.4254 41.6099 58.2037 41.3231C58.0004 41.0593 57.877 40.5681 57.758 40.0935C57.6695 39.7452 57.5779 39.3766 57.4398 39.0237C65.4642 29.9491 73.252 22.4797 78.853 18.4894C78.8664 18.4788 78.8777 18.4667 78.8911 18.4561C78.9045 18.4454 78.9177 18.4331 78.931 18.4225C78.9639 18.3916 78.9949 18.3611 79.0236 18.3275C79.0267 18.3235 79.0317 18.3193 79.0365 18.3134C79.0443 18.3036 79.0501 18.2924 79.058 18.2826C79.0767 18.2574 79.0938 18.2341 79.1086 18.2078C79.7411 17.2573 78.9495 15.8873 76.4207 13.5301ZM60.4371 48.037C60.4444 47.6896 60.6654 47.2047 60.8774 46.735C61.247 45.9192 61.6657 44.9943 61.3572 44.0626C61.3235 43.9644 61.2833 43.8723 61.2378 43.7827L67.4946 42.3322L65.3833 46.4441C65.3749 46.4626 65.3701 46.4806 65.3635 46.4988C65.3495 46.5302 65.3355 46.5617 65.3257 46.5959C65.3182 46.6211 65.3145 46.6458 65.3107 46.6705C65.3059 46.7005 65.299 46.7291 65.2978 46.7586C65.2946 46.7866 65.2969 46.8139 65.2973 46.8414C65.2995 46.8686 65.2979 46.8947 65.302 46.9216C65.306 46.9486 65.3138 46.9749 65.3197 47.0016C65.3275 47.028 65.3316 47.0549 65.3412 47.081C65.3505 47.1055 65.3635 47.1293 65.3747 47.1535C65.3861 47.1793 65.3975 47.2051 65.4145 47.2301C65.4275 47.254 65.4476 47.2751 65.4642 47.2984C65.4807 47.32 65.4971 47.3416 65.5153 47.363C65.5375 47.3855 65.5633 47.4074 65.5889 47.4276C65.6062 47.4422 65.6197 47.4574 65.6367 47.4703L69.4397 50.2113L61.1435 52.1332C61.1633 52.0905 61.1813 52.0482 61.199 52.0042C61.5505 51.0568 61.1642 50.1317 60.8223 49.3136C60.6305 48.8535 60.4306 48.3773 60.4371 48.037ZM25.4595 38.208L30.9602 31.3698L40.2702 37.632C40.1902 37.6734 40.1106 37.7182 40.0358 37.7692C39.1837 38.336 38.9042 39.288 38.6545 40.127C38.5073 40.6282 38.3535 41.1477 38.1102 41.4482C37.869 41.7501 37.3722 42.0373 36.893 42.3167C36.0913 42.7829 35.1809 43.3121 34.8429 44.2247C34.8122 44.3069 34.7889 44.388 34.7695 44.4701L28.1407 40.0114L28.1405 40.0097L28.1365 40.0086L25.4595 38.208ZM12.3641 76.4249C6.01562 72.1562 2.81234 68.978 2.07053 67.7503C3.57287 68.0306 7.84472 69.8804 14.1916 74.151C20.5464 78.4239 23.7499 81.6038 24.4857 82.829C22.8609 82.5328 18.2262 80.3694 12.3641 76.4249ZM25.5147 81.1534C25.0509 80.5829 24.4209 79.9309 23.6124 79.1784C21.5513 77.2568 18.6029 74.9788 15.3076 72.7638C12.0138 70.5468 8.75764 68.6514 6.13955 67.4241C5.1195 66.9466 4.25507 66.592 3.52506 66.3565C10.2236 61.154 18.9041 52.3846 27.7332 41.8752L35.2146 46.9074C35.217 46.9105 35.2175 46.9139 35.2175 46.9139C35.4093 47.374 35.6095 47.8518 35.6027 48.1905C35.5954 48.5379 35.3766 49.0242 35.1643 49.4922C34.795 50.3097 34.3744 51.2348 34.6844 52.1646C34.9898 53.0881 35.8871 53.6101 36.6776 54.0707C37.1388 54.3401 37.6144 54.6176 37.8364 54.9061C38.0395 55.1681 38.1647 55.6591 38.2836 56.1337C38.4927 56.9668 38.731 57.9057 39.5359 58.4985C33.1995 67.2223 28.2957 75.1499 25.5147 81.1534ZM56.5884 66.1873L52.5945 63.6837C52.5777 63.6725 52.5579 63.6652 52.5396 63.6559C52.509 63.6398 52.4782 63.6221 52.4463 63.6097C52.4201 63.5982 52.3929 63.592 52.3673 63.5838C52.3361 63.5765 52.3063 63.5655 52.2754 63.5598C52.2464 63.5539 52.2179 63.5514 52.1893 63.5488C52.159 63.5465 52.1302 63.5423 52.1001 63.5417C52.0718 63.5408 52.0422 63.5436 52.0144 63.5461C51.9827 63.5474 51.9531 63.5502 51.9219 63.5549C51.8944 63.5591 51.8674 63.5666 51.8404 63.5742C51.8095 63.5806 51.7788 63.5887 51.7484 63.5985C51.7201 63.6097 51.6939 63.6223 51.6676 63.6348C51.6414 63.6474 51.6131 63.6586 51.5871 63.6729C51.5577 63.6894 51.5291 63.711 51.5023 63.7323C51.4834 63.7438 51.4642 63.7536 51.4477 63.7681L47.7855 66.8354L47.4347 60.9419C47.5418 60.9549 47.6499 60.9626 47.7625 60.9628C47.8898 60.9607 48.0179 60.9516 48.1444 60.9324C49.034 60.7975 49.7653 60.2386 50.4095 59.7481C50.8365 59.4215 51.2771 59.0859 51.6376 58.976C51.6968 58.9584 51.7639 58.9431 51.8373 58.932C52.1821 58.8797 52.6214 58.906 53.0869 58.9319C53.6396 58.9634 54.2132 58.997 54.7763 58.9116C55.2568 58.8387 55.6583 58.6899 56.0061 58.4597C56.0468 58.4311 56.0856 58.4028 56.1261 58.3726L56.5884 66.1873ZM58.3456 43.6048C58.8996 43.929 59.4737 44.2623 59.585 44.6002C59.6992 44.9447 59.431 45.5384 59.171 46.1119C58.8898 46.7316 58.6007 47.3733 58.5872 48.0506C58.5725 48.7195 58.8373 49.3512 59.0932 49.9618C59.3326 50.5371 59.5805 51.1317 59.4487 51.4876C59.3271 51.811 58.7498 52.1484 58.1892 52.4729C57.8565 52.6663 57.4998 52.8755 57.1692 53.1203C57.1572 53.1273 57.1474 53.1374 57.1356 53.1461C56.8828 53.3343 56.6481 53.5439 56.4522 53.7855C56.252 54.0364 56.102 54.309 55.9778 54.5914C55.9765 54.595 55.9752 54.5986 55.9736 54.6006C55.8194 54.9565 55.7086 55.3265 55.6009 55.6925C55.427 56.277 55.247 56.8832 54.9456 57.0857C54.8432 57.1529 54.7058 57.1996 54.5206 57.2277C54.1648 57.2817 53.72 57.2561 53.2469 57.2297C52.6997 57.1973 52.1336 57.1643 51.5816 57.2481C51.4128 57.2737 51.2514 57.3102 51.1007 57.3555C50.3976 57.569 49.8141 58.0141 49.2508 58.4441C48.7295 58.8419 48.188 59.2548 47.796 59.2557C47.4098 59.2574 46.8912 58.8572 46.3877 58.4702C45.8391 58.0452 45.2696 57.6062 44.5683 57.3991C43.8926 57.2001 43.161 57.2508 42.4538 57.3012C41.7741 57.3475 41.0723 57.3971 40.7359 57.1708C40.3994 56.9445 40.2402 56.3158 40.0879 55.7084C39.9281 55.0763 39.765 54.4223 39.3543 53.892C38.9292 53.3415 38.3015 52.9767 37.6961 52.6224C37.1403 52.2984 36.568 51.9649 36.4569 51.6286C36.3406 51.2828 36.6109 50.6905 36.8709 50.117C37.15 49.4959 37.4412 48.8556 37.4544 48.1766C37.4674 47.508 37.2026 46.8763 36.9484 46.2654C36.7075 45.6921 36.4596 45.0975 36.5932 44.7413C36.7127 44.4165 37.2922 44.0805 37.8524 43.7543C38.4817 43.3884 39.1315 43.009 39.5877 42.4419C40.0457 41.8746 40.2464 41.1947 40.441 40.5364C40.6147 39.9501 40.7929 39.3443 41.0961 39.1415C41.1966 39.0746 41.3361 39.0293 41.5195 39.0015C41.8753 38.9475 42.322 38.9728 42.7932 38.9995C43.3402 39.0302 43.9062 39.0632 44.4582 38.9794C44.627 38.9538 44.7903 38.917 44.941 38.8717C45.6441 38.6582 46.2276 38.2131 46.7909 37.7831C47.3124 37.387 47.8539 36.9741 48.2456 36.9715C48.6301 36.97 49.1505 37.37 49.6524 37.759C50.2026 38.182 50.7703 38.6213 51.4734 38.8281C52.1472 39.0274 52.8788 38.9767 53.5863 38.9279C54.2658 38.8799 54.9693 38.8301 55.3058 39.0564C55.6422 39.2827 55.8015 39.9114 55.9538 40.5188C56.1117 41.1512 56.2766 41.8049 56.6856 42.3355C57.1106 42.886 57.7383 43.2507 58.3456 43.6048ZM56.3284 37.6109C55.4704 37.0882 54.4232 37.1609 53.4928 37.2246C52.9618 37.2621 52.4123 37.3006 52.0783 37.2014C51.711 37.0935 51.2796 36.761 50.861 36.4386C50.1447 35.8858 49.3326 35.2579 48.2776 35.2664C48.1519 35.2665 48.024 35.2773 47.8975 35.2965C47.0079 35.4314 46.2763 35.9886 45.6322 36.4791C45.2052 36.8057 44.7646 37.1413 44.4023 37.2514C44.343 37.269 44.2759 37.2844 44.2025 37.2955C43.8577 37.3478 43.4184 37.3214 42.9548 37.2953C42.9548 37.2953 42.9511 37.2959 42.9472 37.2947L35.4658 32.2625C44.395 20.6578 51.4973 9.45246 54.6032 2.06633C55.792 2.13575 60.206 3.93299 66.9999 8.50275C73.7645 13.0528 76.9576 16.3618 77.405 17.393C71.7223 21.5128 64.2804 28.6523 56.3284 37.6109Z" stroke="#275D8B" stroke-width="22" mask="url(#path-1-inside-1_82_659)"/>
</g>
</svg>
